<svg width="99" height="18" viewBox="0 0 99 18" fill="none" xmlns="http://www.w3.org/2000/svg">
<path d="M0.84 8.6C0.84 6.952 1.208 5.48 1.944 4.184C2.696 2.872 3.712 1.856 4.992 1.136C6.288 0.4 7.736 0.0319996 9.336 0.0319996C11.208 0.0319996 12.848 0.512 14.256 1.472C15.664 2.432 16.648 3.76 17.208 5.456H13.344C12.96 4.656 12.416 4.056 11.712 3.656C11.024 3.256 10.224 3.056 9.312 3.056C8.336 3.056 7.464 3.288 6.696 3.752C5.944 4.2 5.352 4.84 4.92 5.672C4.504 6.504 4.296 7.48 4.296 8.6C4.296 9.704 4.504 10.68 4.92 11.528C5.352 12.36 5.944 13.008 6.696 13.472C7.464 13.92 8.336 14.144 9.312 14.144C10.224 14.144 11.024 13.944 11.712 13.544C12.416 13.128 12.96 12.52 13.344 11.72H17.208C16.648 13.432 15.664 14.768 14.256 15.728C12.864 16.672 11.224 17.144 9.336 17.144C7.736 17.144 6.288 16.784 4.992 16.064C3.712 15.328 2.696 14.312 1.944 13.016C1.208 11.72 0.84 10.248 0.84 8.6ZM25.9819 17.216C24.7019 17.216 23.5499 16.936 22.5259 16.376C21.5019 15.8 20.6939 14.992 20.1019 13.952C19.5259 12.912 19.2379 11.712 19.2379 10.352C19.2379 8.992 19.5339 7.792 20.1259 6.752C20.7339 5.712 21.5579 4.912 22.5979 4.352C23.6379 3.776 24.7979 3.488 26.0779 3.488C27.3579 3.488 28.5179 3.776 29.5579 4.352C30.5979 4.912 31.4139 5.712 32.0059 6.752C32.6139 7.792 32.9179 8.992 32.9179 10.352C32.9179 11.712 32.6059 12.912 31.9819 13.952C31.3739 14.992 30.5419 15.8 29.4859 16.376C28.4459 16.936 27.2779 17.216 25.9819 17.216ZM25.9819 14.288C26.5899 14.288 27.1579 14.144 27.6859 13.856C28.2299 13.552 28.6619 13.104 28.9819 12.512C29.3019 11.92 29.4619 11.2 29.4619 10.352C29.4619 9.088 29.1259 8.12 28.4539 7.448C27.7979 6.76 26.9899 6.416 26.0299 6.416C25.0699 6.416 24.2619 6.76 23.6059 7.448C22.9659 8.12 22.6459 9.088 22.6459 10.352C22.6459 11.616 22.9579 12.592 23.5819 13.28C24.2219 13.952 25.0219 14.288 25.9819 14.288ZM42.7506 3.512C44.3346 3.512 45.6146 4.016 46.5906 5.024C47.5666 6.016 48.0546 7.408 48.0546 9.2V17H44.6946V9.656C44.6946 8.6 44.4306 7.792 43.9026 7.232C43.3746 6.656 42.6546 6.368 41.7426 6.368C40.8146 6.368 40.0786 6.656 39.5346 7.232C39.0066 7.792 38.7426 8.6 38.7426 9.656V17H35.3826V3.704H38.7426V5.36C39.1906 4.784 39.7586 4.336 40.4466 4.016C41.1506 3.68 41.9186 3.512 42.7506 3.512ZM55.1618 6.464V12.896C55.1618 13.344 55.2658 13.672 55.4738 13.88C55.6978 14.072 56.0658 14.168 56.5778 14.168H58.1378V17H56.0258C53.1938 17 51.7778 15.624 51.7778 12.872V6.464H50.1938V3.704H51.7778V0.415999H55.1618V3.704H58.1378V6.464H55.1618ZM59.6904 10.304C59.6904 8.96 59.9544 7.768 60.4824 6.728C61.0264 5.688 61.7544 4.888 62.6664 4.328C63.5944 3.768 64.6264 3.488 65.7624 3.488C66.7544 3.488 67.6184 3.688 68.3544 4.088C69.1064 4.488 69.7064 4.992 70.1544 5.6V3.704H73.5384V17H70.1544V15.056C69.7224 15.68 69.1224 16.2 68.3544 16.616C67.6024 17.016 66.7304 17.216 65.7384 17.216C64.6184 17.216 63.5944 16.928 62.6664 16.352C61.7544 15.776 61.0264 14.968 60.4824 13.928C59.9544 12.872 59.6904 11.664 59.6904 10.304ZM70.1544 10.352C70.1544 9.536 69.9944 8.84 69.6744 8.264C69.3544 7.672 68.9224 7.224 68.3784 6.92C67.8344 6.6 67.2504 6.44 66.6264 6.44C66.0024 6.44 65.4264 6.592 64.8984 6.896C64.3704 7.2 63.9384 7.648 63.6024 8.24C63.2824 8.816 63.1224 9.504 63.1224 10.304C63.1224 11.104 63.2824 11.808 63.6024 12.416C63.9384 13.008 64.3704 13.464 64.8984 13.784C65.4424 14.104 66.0184 14.264 66.6264 14.264C67.2504 14.264 67.8344 14.112 68.3784 13.808C68.9224 13.488 69.3544 13.04 69.6744 12.464C69.9944 11.872 70.1544 11.168 70.1544 10.352ZM75.9561 10.352C75.9561 8.976 76.2361 7.776 76.7961 6.752C77.3561 5.712 78.1321 4.912 79.1241 4.352C80.1161 3.776 81.2521 3.488 82.5321 3.488C84.1801 3.488 85.5401 3.904 86.6121 4.736C87.7001 5.552 88.4281 6.704 88.7961 8.192H85.1721C84.9801 7.616 84.6521 7.168 84.1881 6.848C83.7401 6.512 83.1801 6.344 82.5081 6.344C81.5481 6.344 80.7881 6.696 80.2281 7.4C79.6681 8.088 79.3881 9.072 79.3881 10.352C79.3881 11.616 79.6681 12.6 80.2281 13.304C80.7881 13.992 81.5481 14.336 82.5081 14.336C83.8681 14.336 84.7561 13.728 85.1721 12.512H88.7961C88.4281 13.952 87.7001 15.096 86.6121 15.944C85.5241 16.792 84.1641 17.216 82.5321 17.216C81.2521 17.216 80.1161 16.936 79.1241 16.376C78.1321 15.8 77.3561 15 76.7961 13.976C76.2361 12.936 75.9561 11.728 75.9561 10.352ZM95.1696 6.464V12.896C95.1696 13.344 95.2736 13.672 95.4816 13.88C95.7056 14.072 96.0736 14.168 96.5856 14.168H98.1456V17H96.0336C93.2016 17 91.7856 15.624 91.7856 12.872V6.464H90.2016V3.704H91.7856V0.415999H95.1696V3.704H98.1456V6.464H95.1696Z" fill="#DFCECE"/>
</svg>
