<svg width="1280" height="489" viewBox="0 0 1280 489" fill="none" xmlns="http://www.w3.org/2000/svg">
<rect width="1280" height="489" fill="#443434"/>
<path d="M70.475 186.39C70.585 182.027 71.85 178.69 74.27 176.38C76.7267 174.07 80.1917 172.915 84.665 172.915C87.5617 172.915 90.0367 173.41 92.09 174.4C94.1433 175.39 95.6833 176.728 96.71 178.415C97.7733 180.102 98.305 182.008 98.305 184.135C98.305 186.702 97.7 188.718 96.49 190.185C95.28 191.615 93.9233 192.587 92.42 193.1V193.32C96.82 194.97 99.02 198.032 99.02 202.505C99.02 204.852 98.47 206.923 97.37 208.72C96.27 210.517 94.6933 211.91 92.64 212.9C90.6233 213.89 88.2217 214.385 85.435 214.385C80.6683 214.385 76.9283 213.248 74.215 210.975C71.5017 208.702 70.1083 205.145 70.035 200.305H81.915C81.8417 201.625 82.025 202.633 82.465 203.33C82.9417 203.99 83.7483 204.32 84.885 204.32C85.545 204.32 86.095 204.082 86.535 203.605C86.975 203.092 87.195 202.432 87.195 201.625C87.195 200.598 86.8467 199.828 86.15 199.315C85.49 198.765 84.3533 198.49 82.74 198.49H80.705V188.645H82.685C85.1783 188.792 86.425 187.802 86.425 185.675C86.425 184.758 86.2233 184.08 85.82 183.64C85.4533 183.2 84.9767 182.98 84.39 182.98C83.0333 182.98 82.355 184.117 82.355 186.39H70.475ZM160.739 175.06V214H148.584V194.585L142.589 214H132.139L126.144 194.585V214H113.934V175.06H128.894L137.474 198.435L145.834 175.06H160.739ZM178.458 175.06V214H166.248V175.06H178.458ZM196.183 204.76H207.953V214H183.973V175.06H196.183V204.76ZM224.005 204.76H235.775V214H211.795V175.06H224.005V204.76ZM251.827 175.06V214H239.617V175.06H251.827ZM276.317 214.385C272.65 214.385 269.277 213.523 266.197 211.8C263.153 210.077 260.733 207.693 258.937 204.65C257.14 201.607 256.242 198.178 256.242 194.365C256.242 190.552 257.14 187.123 258.937 184.08C260.733 181.037 263.153 178.672 266.197 176.985C269.277 175.262 272.65 174.4 276.317 174.4C279.983 174.4 283.338 175.262 286.382 176.985C289.425 178.672 291.827 181.037 293.587 184.08C295.383 187.123 296.282 190.552 296.282 194.365C296.282 198.178 295.383 201.607 293.587 204.65C291.827 207.693 289.407 210.077 286.327 211.8C283.283 213.523 279.947 214.385 276.317 214.385ZM276.317 203C278.737 203 280.607 202.23 281.927 200.69C283.247 199.113 283.907 197.005 283.907 194.365C283.907 191.688 283.247 189.58 281.927 188.04C280.607 186.463 278.737 185.675 276.317 185.675C273.86 185.675 271.972 186.463 270.652 188.04C269.332 189.58 268.672 191.688 268.672 194.365C268.672 197.005 269.332 199.113 270.652 200.69C271.972 202.23 273.86 203 276.317 203ZM338.032 214H325.822L312.897 194.42V214H300.687V175.06H312.897L325.822 194.97V175.06H338.032V214ZM358.783 214.385C354.126 214.385 350.276 213.303 347.233 211.14C344.226 208.94 342.595 205.732 342.338 201.515H355.318C355.501 203.752 356.491 204.87 358.288 204.87C358.948 204.87 359.498 204.723 359.938 204.43C360.415 204.1 360.653 203.605 360.653 202.945C360.653 202.028 360.158 201.295 359.168 200.745C358.178 200.158 356.638 199.498 354.548 198.765C352.055 197.885 349.983 197.023 348.333 196.18C346.72 195.337 345.326 194.108 344.153 192.495C342.98 190.882 342.411 188.81 342.448 186.28C342.448 183.75 343.09 181.605 344.373 179.845C345.693 178.048 347.471 176.692 349.708 175.775C351.981 174.858 354.53 174.4 357.353 174.4C362.12 174.4 365.896 175.5 368.683 177.7C371.506 179.9 372.991 182.998 373.138 186.995H359.993C359.956 185.895 359.681 185.107 359.168 184.63C358.655 184.153 358.031 183.915 357.298 183.915C356.785 183.915 356.363 184.098 356.033 184.465C355.703 184.795 355.538 185.272 355.538 185.895C355.538 186.775 356.015 187.508 356.968 188.095C357.958 188.645 359.516 189.323 361.643 190.13C364.1 191.047 366.116 191.927 367.693 192.77C369.306 193.613 370.7 194.787 371.873 196.29C373.046 197.793 373.633 199.682 373.633 201.955C373.633 204.338 373.046 206.483 371.873 208.39C370.7 210.26 368.995 211.727 366.758 212.79C364.521 213.853 361.863 214.385 358.783 214.385Z" fill="white"/>
<path d="M75.248 256.32C77.024 256.32 78.576 256.664 79.904 257.352C81.248 258.024 82.28 259 83 260.28C83.736 261.544 84.104 263.024 84.104 264.72C84.104 266.416 83.736 267.888 83 269.136C82.28 270.384 81.248 271.344 79.904 272.016C78.576 272.672 77.024 273 75.248 273H69.8V256.32H75.248ZM75.248 270.768C77.2 270.768 78.696 270.24 79.736 269.184C80.776 268.128 81.296 266.64 81.296 264.72C81.296 262.784 80.776 261.272 79.736 260.184C78.696 259.096 77.2 258.552 75.248 258.552H72.536V270.768H75.248ZM98.9356 266.064C98.9356 266.56 98.9036 267.008 98.8396 267.408H88.7356C88.8156 268.464 89.2076 269.312 89.9116 269.952C90.6156 270.592 91.4796 270.912 92.5036 270.912C93.9756 270.912 95.0156 270.296 95.6236 269.064H98.5756C98.1756 270.28 97.4476 271.28 96.3916 272.064C95.3516 272.832 94.0556 273.216 92.5036 273.216C91.2396 273.216 90.1036 272.936 89.0956 272.376C88.1036 271.8 87.3196 271 86.7436 269.976C86.1836 268.936 85.9036 267.736 85.9036 266.376C85.9036 265.016 86.1756 263.824 86.7196 262.8C87.2796 261.76 88.0556 260.96 89.0476 260.4C90.0556 259.84 91.2076 259.56 92.5036 259.56C93.7516 259.56 94.8636 259.832 95.8396 260.376C96.8156 260.92 97.5756 261.688 98.1196 262.68C98.6636 263.656 98.9356 264.784 98.9356 266.064ZM96.0796 265.2C96.0636 264.192 95.7036 263.384 94.9996 262.776C94.2956 262.168 93.4236 261.864 92.3836 261.864C91.4396 261.864 90.6316 262.168 89.9596 262.776C89.2876 263.368 88.8876 264.176 88.7596 265.2H96.0796ZM106.951 266.376C106.951 265.016 107.223 263.824 107.767 262.8C108.327 261.76 109.095 260.96 110.071 260.4C111.047 259.84 112.167 259.56 113.431 259.56C115.031 259.56 116.351 259.944 117.391 260.712C118.447 261.464 119.159 262.544 119.527 263.952H116.575C116.335 263.296 115.951 262.784 115.423 262.416C114.895 262.048 114.231 261.864 113.431 261.864C112.311 261.864 111.415 262.264 110.743 263.064C110.087 263.848 109.759 264.952 109.759 266.376C109.759 267.8 110.087 268.912 110.743 269.712C111.415 270.512 112.311 270.912 113.431 270.912C115.015 270.912 116.063 270.216 116.575 268.824H119.527C119.143 270.168 118.423 271.24 117.367 272.04C116.311 272.824 114.999 273.216 113.431 273.216C112.167 273.216 111.047 272.936 110.071 272.376C109.095 271.8 108.327 271 107.767 269.976C107.223 268.936 106.951 267.736 106.951 266.376ZM127.989 273.216C126.741 273.216 125.613 272.936 124.605 272.376C123.597 271.8 122.805 271 122.229 269.976C121.653 268.936 121.365 267.736 121.365 266.376C121.365 265.032 121.661 263.84 122.253 262.8C122.845 261.76 123.653 260.96 124.677 260.4C125.701 259.84 126.845 259.56 128.109 259.56C129.373 259.56 130.517 259.84 131.541 260.4C132.565 260.96 133.373 261.76 133.965 262.8C134.557 263.84 134.853 265.032 134.853 266.376C134.853 267.72 134.549 268.912 133.941 269.952C133.333 270.992 132.501 271.8 131.445 272.376C130.405 272.936 129.253 273.216 127.989 273.216ZM127.989 270.84C128.693 270.84 129.349 270.672 129.957 270.336C130.581 270 131.085 269.496 131.469 268.824C131.853 268.152 132.045 267.336 132.045 266.376C132.045 265.416 131.861 264.608 131.493 263.952C131.125 263.28 130.637 262.776 130.029 262.44C129.421 262.104 128.765 261.936 128.061 261.936C127.357 261.936 126.701 262.104 126.093 262.44C125.501 262.776 125.029 263.28 124.677 263.952C124.325 264.608 124.149 265.416 124.149 266.376C124.149 267.8 124.509 268.904 125.229 269.688C125.965 270.456 126.885 270.84 127.989 270.84ZM144.23 259.56C145.27 259.56 146.198 259.776 147.014 260.208C147.846 260.64 148.494 261.28 148.958 262.128C149.422 262.976 149.654 264 149.654 265.2V273H146.942V265.608C146.942 264.424 146.646 263.52 146.054 262.896C145.462 262.256 144.654 261.936 143.63 261.936C142.606 261.936 141.79 262.256 141.182 262.896C140.59 263.52 140.294 264.424 140.294 265.608V273H137.558V259.776H140.294V261.288C140.742 260.744 141.31 260.32 141.998 260.016C142.702 259.712 143.446 259.56 144.23 259.56ZM157.944 273.216C156.904 273.216 155.968 273.032 155.136 272.664C154.32 272.28 153.672 271.768 153.192 271.128C152.712 270.472 152.456 269.744 152.424 268.944H155.256C155.304 269.504 155.568 269.976 156.048 270.36C156.544 270.728 157.16 270.912 157.896 270.912C158.664 270.912 159.256 270.768 159.672 270.48C160.104 270.176 160.32 269.792 160.32 269.328C160.32 268.832 160.08 268.464 159.6 268.224C159.136 267.984 158.392 267.72 157.368 267.432C156.376 267.16 155.568 266.896 154.944 266.64C154.32 266.384 153.776 265.992 153.312 265.464C152.864 264.936 152.64 264.24 152.64 263.376C152.64 262.672 152.848 262.032 153.264 261.456C153.68 260.864 154.272 260.4 155.04 260.064C155.824 259.728 156.72 259.56 157.728 259.56C159.232 259.56 160.44 259.944 161.352 260.712C162.28 261.464 162.776 262.496 162.84 263.808H160.104C160.056 263.216 159.816 262.744 159.384 262.392C158.952 262.04 158.368 261.864 157.632 261.864C156.912 261.864 156.36 262 155.976 262.272C155.592 262.544 155.4 262.904 155.4 263.352C155.4 263.704 155.528 264 155.784 264.24C156.04 264.48 156.352 264.672 156.72 264.816C157.088 264.944 157.632 265.112 158.352 265.32C159.312 265.576 160.096 265.84 160.704 266.112C161.328 266.368 161.864 266.752 162.312 267.264C162.76 267.776 162.992 268.456 163.008 269.304C163.008 270.056 162.8 270.728 162.384 271.32C161.968 271.912 161.376 272.376 160.608 272.712C159.856 273.048 158.968 273.216 157.944 273.216ZM171.7 273.216C170.452 273.216 169.324 272.936 168.316 272.376C167.308 271.8 166.516 271 165.94 269.976C165.364 268.936 165.076 267.736 165.076 266.376C165.076 265.032 165.372 263.84 165.964 262.8C166.556 261.76 167.364 260.96 168.388 260.4C169.412 259.84 170.556 259.56 171.82 259.56C173.084 259.56 174.228 259.84 175.252 260.4C176.276 260.96 177.084 261.76 177.676 262.8C178.268 263.84 178.564 265.032 178.564 266.376C178.564 267.72 178.26 268.912 177.652 269.952C177.044 270.992 176.212 271.8 175.156 272.376C174.116 272.936 172.964 273.216 171.7 273.216ZM171.7 270.84C172.404 270.84 173.06 270.672 173.668 270.336C174.292 270 174.796 269.496 175.18 268.824C175.564 268.152 175.756 267.336 175.756 266.376C175.756 265.416 175.572 264.608 175.204 263.952C174.836 263.28 174.348 262.776 173.74 262.44C173.132 262.104 172.476 261.936 171.772 261.936C171.068 261.936 170.412 262.104 169.804 262.44C169.212 262.776 168.74 263.28 168.388 263.952C168.036 264.608 167.86 265.416 167.86 266.376C167.86 267.8 168.22 268.904 168.94 269.688C169.676 270.456 170.596 270.84 171.7 270.84ZM197.277 259.56C198.317 259.56 199.245 259.776 200.061 260.208C200.893 260.64 201.541 261.28 202.005 262.128C202.485 262.976 202.725 264 202.725 265.2V273H200.013V265.608C200.013 264.424 199.717 263.52 199.125 262.896C198.533 262.256 197.725 261.936 196.701 261.936C195.677 261.936 194.861 262.256 194.253 262.896C193.661 263.52 193.365 264.424 193.365 265.608V273H190.653V265.608C190.653 264.424 190.357 263.52 189.765 262.896C189.173 262.256 188.365 261.936 187.341 261.936C186.317 261.936 185.501 262.256 184.893 262.896C184.301 263.52 184.005 264.424 184.005 265.608V273H181.269V259.776H184.005V261.288C184.453 260.744 185.021 260.32 185.709 260.016C186.397 259.712 187.133 259.56 187.917 259.56C188.973 259.56 189.917 259.784 190.749 260.232C191.581 260.68 192.221 261.328 192.669 262.176C193.069 261.376 193.693 260.744 194.541 260.28C195.389 259.8 196.301 259.56 197.277 259.56ZM222.214 259.56C223.254 259.56 224.182 259.776 224.998 260.208C225.83 260.64 226.478 261.28 226.942 262.128C227.422 262.976 227.662 264 227.662 265.2V273H224.95V265.608C224.95 264.424 224.654 263.52 224.062 262.896C223.47 262.256 222.662 261.936 221.638 261.936C220.614 261.936 219.798 262.256 219.19 262.896C218.598 263.52 218.302 264.424 218.302 265.608V273H215.59V265.608C215.59 264.424 215.294 263.52 214.702 262.896C214.11 262.256 213.302 261.936 212.278 261.936C211.254 261.936 210.438 262.256 209.83 262.896C209.238 263.52 208.942 264.424 208.942 265.608V273H206.206V259.776H208.942V261.288C209.39 260.744 209.958 260.32 210.646 260.016C211.334 259.712 212.07 259.56 212.854 259.56C213.91 259.56 214.854 259.784 215.686 260.232C216.518 260.68 217.158 261.328 217.606 262.176C218.006 261.376 218.63 260.744 219.478 260.28C220.326 259.8 221.238 259.56 222.214 259.56ZM230.232 266.328C230.232 265 230.504 263.824 231.048 262.8C231.608 261.776 232.36 260.984 233.304 260.424C234.264 259.848 235.32 259.56 236.472 259.56C237.512 259.56 238.416 259.768 239.184 260.184C239.968 260.584 240.592 261.088 241.056 261.696V259.776H243.816V273H241.056V271.032C240.592 271.656 239.96 272.176 239.16 272.592C238.36 273.008 237.448 273.216 236.424 273.216C235.288 273.216 234.248 272.928 233.304 272.352C232.36 271.76 231.608 270.944 231.048 269.904C230.504 268.848 230.232 267.656 230.232 266.328ZM241.056 266.376C241.056 265.464 240.864 264.672 240.48 264C240.112 263.328 239.624 262.816 239.016 262.464C238.408 262.112 237.752 261.936 237.048 261.936C236.344 261.936 235.688 262.112 235.08 262.464C234.472 262.8 233.976 263.304 233.592 263.976C233.224 264.632 233.04 265.416 233.04 266.328C233.04 267.24 233.224 268.04 233.592 268.728C233.976 269.416 234.472 269.944 235.08 270.312C235.704 270.664 236.36 270.84 237.048 270.84C237.752 270.84 238.408 270.664 239.016 270.312C239.624 269.96 240.112 269.448 240.48 268.776C240.864 268.088 241.056 267.288 241.056 266.376ZM250.601 262.008V269.328C250.601 269.824 250.713 270.184 250.937 270.408C251.177 270.616 251.577 270.72 252.137 270.72H253.817V273H251.657C250.425 273 249.481 272.712 248.825 272.136C248.169 271.56 247.841 270.624 247.841 269.328V262.008H246.281V259.776H247.841V256.488H250.601V259.776H253.817V262.008H250.601ZM268.459 266.064C268.459 266.56 268.427 267.008 268.363 267.408H258.259C258.339 268.464 258.731 269.312 259.435 269.952C260.139 270.592 261.003 270.912 262.027 270.912C263.499 270.912 264.539 270.296 265.147 269.064H268.099C267.699 270.28 266.971 271.28 265.915 272.064C264.875 272.832 263.579 273.216 262.027 273.216C260.763 273.216 259.627 272.936 258.619 272.376C257.627 271.8 256.843 271 256.267 269.976C255.707 268.936 255.427 267.736 255.427 266.376C255.427 265.016 255.699 263.824 256.243 262.8C256.803 261.76 257.579 260.96 258.571 260.4C259.579 259.84 260.731 259.56 262.027 259.56C263.275 259.56 264.387 259.832 265.363 260.376C266.339 260.92 267.099 261.688 267.643 262.68C268.187 263.656 268.459 264.784 268.459 266.064ZM265.603 265.2C265.587 264.192 265.227 263.384 264.523 262.776C263.819 262.168 262.947 261.864 261.907 261.864C260.963 261.864 260.155 262.168 259.483 262.776C258.811 263.368 258.411 264.176 258.283 265.2H265.603ZM283.128 259.776V273H280.392V271.44C279.96 271.984 279.392 272.416 278.688 272.736C278 273.04 277.264 273.192 276.48 273.192C275.44 273.192 274.504 272.976 273.672 272.544C272.856 272.112 272.208 271.472 271.728 270.624C271.264 269.776 271.032 268.752 271.032 267.552V259.776H273.744V267.144C273.744 268.328 274.04 269.24 274.632 269.88C275.224 270.504 276.032 270.816 277.056 270.816C278.08 270.816 278.888 270.504 279.48 269.88C280.088 269.24 280.392 268.328 280.392 267.144V259.776H283.128ZM289.474 261.696C289.874 261.024 290.402 260.504 291.058 260.136C291.73 259.752 292.522 259.56 293.434 259.56V262.392H292.738C291.666 262.392 290.85 262.664 290.29 263.208C289.746 263.752 289.474 264.696 289.474 266.04V273H286.738V259.776H289.474V261.696ZM301.271 266.328C301.271 265 301.543 263.824 302.087 262.8C302.647 261.776 303.399 260.984 304.343 260.424C305.303 259.848 306.359 259.56 307.511 259.56C308.551 259.56 309.455 259.768 310.223 260.184C311.007 260.584 311.631 261.088 312.095 261.696V259.776H314.855V273H312.095V271.032C311.631 271.656 310.999 272.176 310.199 272.592C309.399 273.008 308.487 273.216 307.463 273.216C306.327 273.216 305.287 272.928 304.343 272.352C303.399 271.76 302.647 270.944 302.087 269.904C301.543 268.848 301.271 267.656 301.271 266.328ZM312.095 266.376C312.095 265.464 311.903 264.672 311.519 264C311.151 263.328 310.663 262.816 310.055 262.464C309.447 262.112 308.791 261.936 308.087 261.936C307.383 261.936 306.727 262.112 306.119 262.464C305.511 262.8 305.015 263.304 304.631 263.976C304.263 264.632 304.079 265.416 304.079 266.328C304.079 267.24 304.263 268.04 304.631 268.728C305.015 269.416 305.511 269.944 306.119 270.312C306.743 270.664 307.399 270.84 308.087 270.84C308.791 270.84 309.447 270.664 310.055 270.312C310.663 269.96 311.151 269.448 311.519 268.776C311.903 268.088 312.095 267.288 312.095 266.376ZM310.991 256.824V258.84L305.687 256.224V253.896L310.991 256.824ZM327.875 262.008V269.328C327.875 269.824 327.987 270.184 328.211 270.408C328.451 270.616 328.851 270.72 329.411 270.72H331.091V273H328.931C327.699 273 326.755 272.712 326.099 272.136C325.443 271.56 325.115 270.624 325.115 269.328V262.008H323.555V259.776H325.115V256.488H327.875V259.776H331.091V262.008H327.875ZM336.349 261.696C336.749 261.024 337.277 260.504 337.933 260.136C338.605 259.752 339.397 259.56 340.309 259.56V262.392H339.613C338.541 262.392 337.725 262.664 337.165 263.208C336.621 263.752 336.349 264.696 336.349 266.04V273H333.613V259.776H336.349V261.696ZM341.911 266.328C341.911 265 342.183 263.824 342.727 262.8C343.287 261.776 344.039 260.984 344.983 260.424C345.943 259.848 346.999 259.56 348.151 259.56C349.191 259.56 350.095 259.768 350.863 260.184C351.647 260.584 352.271 261.088 352.735 261.696V259.776H355.495V273H352.735V271.032C352.271 271.656 351.639 272.176 350.839 272.592C350.039 273.008 349.127 273.216 348.103 273.216C346.967 273.216 345.927 272.928 344.983 272.352C344.039 271.76 343.287 270.944 342.727 269.904C342.183 268.848 341.911 267.656 341.911 266.328ZM352.735 266.376C352.735 265.464 352.543 264.672 352.159 264C351.791 263.328 351.303 262.816 350.695 262.464C350.087 262.112 349.431 261.936 348.727 261.936C348.023 261.936 347.367 262.112 346.759 262.464C346.151 262.8 345.655 263.304 345.271 263.976C344.903 264.632 344.719 265.416 344.719 266.328C344.719 267.24 344.903 268.04 345.271 268.728C345.655 269.416 346.151 269.944 346.759 270.312C347.383 270.664 348.039 270.84 348.727 270.84C349.431 270.84 350.087 270.664 350.695 270.312C351.303 269.96 351.791 269.448 352.159 268.776C352.543 268.088 352.735 267.288 352.735 266.376ZM364.201 270.552L367.945 259.776H370.849L365.809 273H362.545L357.529 259.776H360.457L364.201 270.552ZM385.037 266.064C385.037 266.56 385.005 267.008 384.941 267.408H374.837C374.917 268.464 375.309 269.312 376.013 269.952C376.717 270.592 377.581 270.912 378.605 270.912C380.077 270.912 381.117 270.296 381.725 269.064H384.677C384.277 270.28 383.549 271.28 382.493 272.064C381.453 272.832 380.157 273.216 378.605 273.216C377.341 273.216 376.205 272.936 375.197 272.376C374.205 271.8 373.421 271 372.845 269.976C372.285 268.936 372.005 267.736 372.005 266.376C372.005 265.016 372.277 263.824 372.821 262.8C373.381 261.76 374.157 260.96 375.149 260.4C376.157 259.84 377.309 259.56 378.605 259.56C379.853 259.56 380.965 259.832 381.941 260.376C382.917 260.92 383.677 261.688 384.221 262.68C384.765 263.656 385.037 264.784 385.037 266.064ZM382.181 265.2C382.165 264.192 381.805 263.384 381.101 262.776C380.397 262.168 379.525 261.864 378.485 261.864C377.541 261.864 376.733 262.168 376.061 262.776C375.389 263.368 374.989 264.176 374.861 265.2H382.181ZM390.466 261.696C390.866 261.024 391.394 260.504 392.05 260.136C392.722 259.752 393.514 259.56 394.426 259.56V262.392H393.73C392.658 262.392 391.842 262.664 391.282 263.208C390.738 263.752 390.466 264.696 390.466 266.04V273H387.73V259.776H390.466V261.696ZM401.741 273.216C400.701 273.216 399.765 273.032 398.933 272.664C398.117 272.28 397.469 271.768 396.989 271.128C396.509 270.472 396.253 269.744 396.221 268.944H399.053C399.101 269.504 399.365 269.976 399.845 270.36C400.341 270.728 400.957 270.912 401.693 270.912C402.461 270.912 403.053 270.768 403.469 270.48C403.901 270.176 404.117 269.792 404.117 269.328C404.117 268.832 403.877 268.464 403.397 268.224C402.933 267.984 402.189 267.72 401.165 267.432C400.173 267.16 399.365 266.896 398.741 266.64C398.117 266.384 397.573 265.992 397.109 265.464C396.661 264.936 396.437 264.24 396.437 263.376C396.437 262.672 396.645 262.032 397.061 261.456C397.477 260.864 398.069 260.4 398.837 260.064C399.621 259.728 400.517 259.56 401.525 259.56C403.029 259.56 404.237 259.944 405.149 260.712C406.077 261.464 406.573 262.496 406.637 263.808H403.901C403.853 263.216 403.613 262.744 403.181 262.392C402.749 262.04 402.165 261.864 401.429 261.864C400.709 261.864 400.157 262 399.773 262.272C399.389 262.544 399.197 262.904 399.197 263.352C399.197 263.704 399.325 264 399.581 264.24C399.837 264.48 400.149 264.672 400.517 264.816C400.885 264.944 401.429 265.112 402.149 265.32C403.109 265.576 403.893 265.84 404.501 266.112C405.125 266.368 405.661 266.752 406.109 267.264C406.557 267.776 406.789 268.456 406.805 269.304C406.805 270.056 406.597 270.728 406.181 271.32C405.765 271.912 405.173 272.376 404.405 272.712C403.653 273.048 402.765 273.216 401.741 273.216ZM72.536 291.24V309H69.8V291.24H72.536ZM76.5601 292.32H79.5361L77.0161 298.032H75.0961L76.5601 292.32ZM81.0286 302.328C81.0286 301 81.3006 299.824 81.8446 298.8C82.4046 297.776 83.1566 296.984 84.1006 296.424C85.0606 295.848 86.1166 295.56 87.2686 295.56C88.3086 295.56 89.2126 295.768 89.9806 296.184C90.7646 296.584 91.3886 297.088 91.8526 297.696V295.776H94.6126V309H91.8526V307.032C91.3886 307.656 90.7566 308.176 89.9566 308.592C89.1566 309.008 88.2446 309.216 87.2206 309.216C86.0846 309.216 85.0446 308.928 84.1006 308.352C83.1566 307.76 82.4046 306.944 81.8446 305.904C81.3006 304.848 81.0286 303.656 81.0286 302.328ZM91.8526 302.376C91.8526 301.464 91.6606 300.672 91.2766 300C90.9086 299.328 90.4206 298.816 89.8126 298.464C89.2046 298.112 88.5486 297.936 87.8446 297.936C87.1406 297.936 86.4846 298.112 85.8766 298.464C85.2686 298.8 84.7726 299.304 84.3886 299.976C84.0206 300.632 83.8366 301.416 83.8366 302.328C83.8366 303.24 84.0206 304.04 84.3886 304.728C84.7726 305.416 85.2686 305.944 85.8766 306.312C86.5006 306.664 87.1566 306.84 87.8446 306.84C88.5486 306.84 89.2046 306.664 89.8126 306.312C90.4206 305.96 90.9086 305.448 91.2766 304.776C91.6606 304.088 91.8526 303.288 91.8526 302.376ZM103.75 298.008H101.302V309H98.5423V298.008H96.9823V295.776H98.5423V294.84C98.5423 293.32 98.9423 292.216 99.7423 291.528C100.558 290.824 101.83 290.472 103.558 290.472V292.752C102.726 292.752 102.142 292.912 101.806 293.232C101.47 293.536 101.302 294.072 101.302 294.84V295.776H103.75V298.008ZM108.911 297.696C109.311 297.024 109.839 296.504 110.495 296.136C111.167 295.752 111.959 295.56 112.871 295.56V298.392H112.175C111.103 298.392 110.287 298.664 109.727 299.208C109.183 299.752 108.911 300.696 108.911 302.04V309H106.175V295.776H108.911V297.696ZM116.778 294.024C116.282 294.024 115.866 293.856 115.53 293.52C115.194 293.184 115.026 292.768 115.026 292.272C115.026 291.776 115.194 291.36 115.53 291.024C115.866 290.688 116.282 290.52 116.778 290.52C117.258 290.52 117.666 290.688 118.002 291.024C118.338 291.36 118.506 291.776 118.506 292.272C118.506 292.768 118.338 293.184 118.002 293.52C117.666 293.856 117.258 294.024 116.778 294.024ZM118.122 295.776V309H115.386V295.776H118.122ZM120.802 302.328C120.802 301 121.074 299.824 121.618 298.8C122.178 297.776 122.93 296.984 123.874 296.424C124.834 295.848 125.898 295.56 127.066 295.56C128.09 295.56 128.994 295.768 129.778 296.184C130.578 296.6 131.194 297.104 131.626 297.696V295.776H134.386V315.288H131.626V307.08C131.194 307.672 130.57 308.176 129.754 308.592C128.938 309.008 128.01 309.216 126.97 309.216C125.834 309.216 124.794 308.928 123.85 308.352C122.922 307.76 122.178 306.944 121.618 305.904C121.074 304.848 120.802 303.656 120.802 302.328ZM131.626 302.376C131.626 301.464 131.434 300.672 131.05 300C130.682 299.328 130.194 298.816 129.586 298.464C128.978 298.112 128.322 297.936 127.618 297.936C126.914 297.936 126.258 298.112 125.65 298.464C125.042 298.8 124.546 299.304 124.162 299.976C123.794 300.632 123.61 301.416 123.61 302.328C123.61 303.24 123.794 304.04 124.162 304.728C124.546 305.416 125.042 305.944 125.65 306.312C126.274 306.664 126.93 306.84 127.618 306.84C128.322 306.84 128.978 306.664 129.586 306.312C130.194 305.96 130.682 305.448 131.05 304.776C131.434 304.088 131.626 303.288 131.626 302.376ZM149.956 295.776V309H147.22V307.44C146.788 307.984 146.22 308.416 145.516 308.736C144.828 309.04 144.092 309.192 143.308 309.192C142.268 309.192 141.332 308.976 140.5 308.544C139.684 308.112 139.036 307.472 138.556 306.624C138.092 305.776 137.86 304.752 137.86 303.552V295.776H140.572V303.144C140.572 304.328 140.868 305.24 141.46 305.88C142.052 306.504 142.86 306.816 143.884 306.816C144.908 306.816 145.716 306.504 146.308 305.88C146.916 305.24 147.22 304.328 147.22 303.144V295.776H149.956ZM165.686 302.064C165.686 302.56 165.654 303.008 165.59 303.408H155.486C155.566 304.464 155.958 305.312 156.662 305.952C157.366 306.592 158.23 306.912 159.254 306.912C160.726 306.912 161.766 306.296 162.374 305.064H165.326C164.926 306.28 164.198 307.28 163.142 308.064C162.102 308.832 160.806 309.216 159.254 309.216C157.99 309.216 156.854 308.936 155.846 308.376C154.854 307.8 154.07 307 153.494 305.976C152.934 304.936 152.654 303.736 152.654 302.376C152.654 301.016 152.926 299.824 153.47 298.8C154.03 297.76 154.806 296.96 155.798 296.4C156.806 295.84 157.958 295.56 159.254 295.56C160.502 295.56 161.614 295.832 162.59 296.376C163.566 296.92 164.326 297.688 164.87 298.68C165.414 299.656 165.686 300.784 165.686 302.064ZM162.83 301.2C162.814 300.192 162.454 299.384 161.75 298.776C161.046 298.168 160.174 297.864 159.134 297.864C158.19 297.864 157.382 298.168 156.71 298.776C156.038 299.368 155.638 300.176 155.51 301.2H162.83Z" fill="white"/>
<path d="M469.475 186.39C469.585 182.027 470.85 178.69 473.27 176.38C475.727 174.07 479.192 172.915 483.665 172.915C486.562 172.915 489.037 173.41 491.09 174.4C493.143 175.39 494.683 176.728 495.71 178.415C496.773 180.102 497.305 182.008 497.305 184.135C497.305 186.702 496.7 188.718 495.49 190.185C494.28 191.615 492.923 192.587 491.42 193.1V193.32C495.82 194.97 498.02 198.032 498.02 202.505C498.02 204.852 497.47 206.923 496.37 208.72C495.27 210.517 493.693 211.91 491.64 212.9C489.623 213.89 487.222 214.385 484.435 214.385C479.668 214.385 475.928 213.248 473.215 210.975C470.502 208.702 469.108 205.145 469.035 200.305H480.915C480.842 201.625 481.025 202.633 481.465 203.33C481.942 203.99 482.748 204.32 483.885 204.32C484.545 204.32 485.095 204.082 485.535 203.605C485.975 203.092 486.195 202.432 486.195 201.625C486.195 200.598 485.847 199.828 485.15 199.315C484.49 198.765 483.353 198.49 481.74 198.49H479.705V188.645H481.685C484.178 188.792 485.425 187.802 485.425 185.675C485.425 184.758 485.223 184.08 484.82 183.64C484.453 183.2 483.977 182.98 483.39 182.98C482.033 182.98 481.355 184.117 481.355 186.39H469.475ZM559.739 175.06V214H547.584V194.585L541.589 214H531.139L525.144 194.585V214H512.934V175.06H527.894L536.474 198.435L544.834 175.06H559.739ZM577.458 175.06V214H565.248V175.06H577.458ZM595.183 204.76H606.953V214H582.973V175.06H595.183V204.76ZM623.005 204.76H634.775V214H610.795V175.06H623.005V204.76ZM650.827 175.06V214H638.617V175.06H650.827ZM675.317 214.385C671.65 214.385 668.277 213.523 665.197 211.8C662.153 210.077 659.733 207.693 657.937 204.65C656.14 201.607 655.242 198.178 655.242 194.365C655.242 190.552 656.14 187.123 657.937 184.08C659.733 181.037 662.153 178.672 665.197 176.985C668.277 175.262 671.65 174.4 675.317 174.4C678.983 174.4 682.338 175.262 685.382 176.985C688.425 178.672 690.827 181.037 692.587 184.08C694.383 187.123 695.282 190.552 695.282 194.365C695.282 198.178 694.383 201.607 692.587 204.65C690.827 207.693 688.407 210.077 685.327 211.8C682.283 213.523 678.947 214.385 675.317 214.385ZM675.317 203C677.737 203 679.607 202.23 680.927 200.69C682.247 199.113 682.907 197.005 682.907 194.365C682.907 191.688 682.247 189.58 680.927 188.04C679.607 186.463 677.737 185.675 675.317 185.675C672.86 185.675 670.972 186.463 669.652 188.04C668.332 189.58 667.672 191.688 667.672 194.365C667.672 197.005 668.332 199.113 669.652 200.69C670.972 202.23 672.86 203 675.317 203ZM737.032 214H724.822L711.897 194.42V214H699.687V175.06H711.897L724.822 194.97V175.06H737.032V214ZM757.783 214.385C753.126 214.385 749.276 213.303 746.233 211.14C743.226 208.94 741.595 205.732 741.338 201.515H754.318C754.501 203.752 755.491 204.87 757.288 204.87C757.948 204.87 758.498 204.723 758.938 204.43C759.415 204.1 759.653 203.605 759.653 202.945C759.653 202.028 759.158 201.295 758.168 200.745C757.178 200.158 755.638 199.498 753.548 198.765C751.055 197.885 748.983 197.023 747.333 196.18C745.72 195.337 744.326 194.108 743.153 192.495C741.98 190.882 741.411 188.81 741.448 186.28C741.448 183.75 742.09 181.605 743.373 179.845C744.693 178.048 746.471 176.692 748.708 175.775C750.981 174.858 753.53 174.4 756.353 174.4C761.12 174.4 764.896 175.5 767.683 177.7C770.506 179.9 771.991 182.998 772.138 186.995H758.993C758.956 185.895 758.681 185.107 758.168 184.63C757.655 184.153 757.031 183.915 756.298 183.915C755.785 183.915 755.363 184.098 755.033 184.465C754.703 184.795 754.538 185.272 754.538 185.895C754.538 186.775 755.015 187.508 755.968 188.095C756.958 188.645 758.516 189.323 760.643 190.13C763.1 191.047 765.116 191.927 766.693 192.77C768.306 193.613 769.7 194.787 770.873 196.29C772.046 197.793 772.633 199.682 772.633 201.955C772.633 204.338 772.046 206.483 770.873 208.39C769.7 210.26 767.995 211.727 765.758 212.79C763.521 213.853 760.863 214.385 757.783 214.385Z" fill="white"/>
<path d="M474.248 256.32C476.024 256.32 477.576 256.664 478.904 257.352C480.248 258.024 481.28 259 482 260.28C482.736 261.544 483.104 263.024 483.104 264.72C483.104 266.416 482.736 267.888 482 269.136C481.28 270.384 480.248 271.344 478.904 272.016C477.576 272.672 476.024 273 474.248 273H468.8V256.32H474.248ZM474.248 270.768C476.2 270.768 477.696 270.24 478.736 269.184C479.776 268.128 480.296 266.64 480.296 264.72C480.296 262.784 479.776 261.272 478.736 260.184C477.696 259.096 476.2 258.552 474.248 258.552H471.536V270.768H474.248ZM497.936 266.064C497.936 266.56 497.904 267.008 497.84 267.408H487.736C487.816 268.464 488.208 269.312 488.912 269.952C489.616 270.592 490.48 270.912 491.504 270.912C492.976 270.912 494.016 270.296 494.624 269.064H497.576C497.176 270.28 496.448 271.28 495.392 272.064C494.352 272.832 493.056 273.216 491.504 273.216C490.24 273.216 489.104 272.936 488.096 272.376C487.104 271.8 486.32 271 485.744 269.976C485.184 268.936 484.904 267.736 484.904 266.376C484.904 265.016 485.176 263.824 485.72 262.8C486.28 261.76 487.056 260.96 488.048 260.4C489.056 259.84 490.208 259.56 491.504 259.56C492.752 259.56 493.864 259.832 494.84 260.376C495.816 260.92 496.576 261.688 497.12 262.68C497.664 263.656 497.936 264.784 497.936 266.064ZM495.08 265.2C495.064 264.192 494.704 263.384 494 262.776C493.296 262.168 492.424 261.864 491.384 261.864C490.44 261.864 489.632 262.168 488.96 262.776C488.288 263.368 487.888 264.176 487.76 265.2H495.08ZM505.951 266.376C505.951 265.016 506.223 263.824 506.767 262.8C507.327 261.76 508.095 260.96 509.071 260.4C510.047 259.84 511.167 259.56 512.431 259.56C514.031 259.56 515.351 259.944 516.391 260.712C517.447 261.464 518.159 262.544 518.527 263.952H515.575C515.335 263.296 514.951 262.784 514.423 262.416C513.895 262.048 513.231 261.864 512.431 261.864C511.311 261.864 510.415 262.264 509.743 263.064C509.087 263.848 508.759 264.952 508.759 266.376C508.759 267.8 509.087 268.912 509.743 269.712C510.415 270.512 511.311 270.912 512.431 270.912C514.015 270.912 515.063 270.216 515.575 268.824H518.527C518.143 270.168 517.423 271.24 516.367 272.04C515.311 272.824 513.999 273.216 512.431 273.216C511.167 273.216 510.047 272.936 509.071 272.376C508.095 271.8 507.327 271 506.767 269.976C506.223 268.936 505.951 267.736 505.951 266.376ZM526.989 273.216C525.741 273.216 524.613 272.936 523.605 272.376C522.597 271.8 521.805 271 521.229 269.976C520.653 268.936 520.365 267.736 520.365 266.376C520.365 265.032 520.661 263.84 521.253 262.8C521.845 261.76 522.653 260.96 523.677 260.4C524.701 259.84 525.845 259.56 527.109 259.56C528.373 259.56 529.517 259.84 530.541 260.4C531.565 260.96 532.373 261.76 532.965 262.8C533.557 263.84 533.853 265.032 533.853 266.376C533.853 267.72 533.549 268.912 532.941 269.952C532.333 270.992 531.501 271.8 530.445 272.376C529.405 272.936 528.253 273.216 526.989 273.216ZM526.989 270.84C527.693 270.84 528.349 270.672 528.957 270.336C529.581 270 530.085 269.496 530.469 268.824C530.853 268.152 531.045 267.336 531.045 266.376C531.045 265.416 530.861 264.608 530.493 263.952C530.125 263.28 529.637 262.776 529.029 262.44C528.421 262.104 527.765 261.936 527.061 261.936C526.357 261.936 525.701 262.104 525.093 262.44C524.501 262.776 524.029 263.28 523.677 263.952C523.325 264.608 523.149 265.416 523.149 266.376C523.149 267.8 523.509 268.904 524.229 269.688C524.965 270.456 525.885 270.84 526.989 270.84ZM543.23 259.56C544.27 259.56 545.198 259.776 546.014 260.208C546.846 260.64 547.494 261.28 547.958 262.128C548.422 262.976 548.654 264 548.654 265.2V273H545.942V265.608C545.942 264.424 545.646 263.52 545.054 262.896C544.462 262.256 543.654 261.936 542.63 261.936C541.606 261.936 540.79 262.256 540.182 262.896C539.59 263.52 539.294 264.424 539.294 265.608V273H536.558V259.776H539.294V261.288C539.742 260.744 540.31 260.32 540.998 260.016C541.702 259.712 542.446 259.56 543.23 259.56ZM556.944 273.216C555.904 273.216 554.968 273.032 554.136 272.664C553.32 272.28 552.672 271.768 552.192 271.128C551.712 270.472 551.456 269.744 551.424 268.944H554.256C554.304 269.504 554.568 269.976 555.048 270.36C555.544 270.728 556.16 270.912 556.896 270.912C557.664 270.912 558.256 270.768 558.672 270.48C559.104 270.176 559.32 269.792 559.32 269.328C559.32 268.832 559.08 268.464 558.6 268.224C558.136 267.984 557.392 267.72 556.368 267.432C555.376 267.16 554.568 266.896 553.944 266.64C553.32 266.384 552.776 265.992 552.312 265.464C551.864 264.936 551.64 264.24 551.64 263.376C551.64 262.672 551.848 262.032 552.264 261.456C552.68 260.864 553.272 260.4 554.04 260.064C554.824 259.728 555.72 259.56 556.728 259.56C558.232 259.56 559.44 259.944 560.352 260.712C561.28 261.464 561.776 262.496 561.84 263.808H559.104C559.056 263.216 558.816 262.744 558.384 262.392C557.952 262.04 557.368 261.864 556.632 261.864C555.912 261.864 555.36 262 554.976 262.272C554.592 262.544 554.4 262.904 554.4 263.352C554.4 263.704 554.528 264 554.784 264.24C555.04 264.48 555.352 264.672 555.72 264.816C556.088 264.944 556.632 265.112 557.352 265.32C558.312 265.576 559.096 265.84 559.704 266.112C560.328 266.368 560.864 266.752 561.312 267.264C561.76 267.776 561.992 268.456 562.008 269.304C562.008 270.056 561.8 270.728 561.384 271.32C560.968 271.912 560.376 272.376 559.608 272.712C558.856 273.048 557.968 273.216 556.944 273.216ZM570.7 273.216C569.452 273.216 568.324 272.936 567.316 272.376C566.308 271.8 565.516 271 564.94 269.976C564.364 268.936 564.076 267.736 564.076 266.376C564.076 265.032 564.372 263.84 564.964 262.8C565.556 261.76 566.364 260.96 567.388 260.4C568.412 259.84 569.556 259.56 570.82 259.56C572.084 259.56 573.228 259.84 574.252 260.4C575.276 260.96 576.084 261.76 576.676 262.8C577.268 263.84 577.564 265.032 577.564 266.376C577.564 267.72 577.26 268.912 576.652 269.952C576.044 270.992 575.212 271.8 574.156 272.376C573.116 272.936 571.964 273.216 570.7 273.216ZM570.7 270.84C571.404 270.84 572.06 270.672 572.668 270.336C573.292 270 573.796 269.496 574.18 268.824C574.564 268.152 574.756 267.336 574.756 266.376C574.756 265.416 574.572 264.608 574.204 263.952C573.836 263.28 573.348 262.776 572.74 262.44C572.132 262.104 571.476 261.936 570.772 261.936C570.068 261.936 569.412 262.104 568.804 262.44C568.212 262.776 567.74 263.28 567.388 263.952C567.036 264.608 566.86 265.416 566.86 266.376C566.86 267.8 567.22 268.904 567.94 269.688C568.676 270.456 569.596 270.84 570.7 270.84ZM596.277 259.56C597.317 259.56 598.245 259.776 599.061 260.208C599.893 260.64 600.541 261.28 601.005 262.128C601.485 262.976 601.725 264 601.725 265.2V273H599.013V265.608C599.013 264.424 598.717 263.52 598.125 262.896C597.533 262.256 596.725 261.936 595.701 261.936C594.677 261.936 593.861 262.256 593.253 262.896C592.661 263.52 592.365 264.424 592.365 265.608V273H589.653V265.608C589.653 264.424 589.357 263.52 588.765 262.896C588.173 262.256 587.365 261.936 586.341 261.936C585.317 261.936 584.501 262.256 583.893 262.896C583.301 263.52 583.005 264.424 583.005 265.608V273H580.269V259.776H583.005V261.288C583.453 260.744 584.021 260.32 584.709 260.016C585.397 259.712 586.133 259.56 586.917 259.56C587.973 259.56 588.917 259.784 589.749 260.232C590.581 260.68 591.221 261.328 591.669 262.176C592.069 261.376 592.693 260.744 593.541 260.28C594.389 259.8 595.301 259.56 596.277 259.56ZM621.214 259.56C622.254 259.56 623.182 259.776 623.998 260.208C624.83 260.64 625.478 261.28 625.942 262.128C626.422 262.976 626.662 264 626.662 265.2V273H623.95V265.608C623.95 264.424 623.654 263.52 623.062 262.896C622.47 262.256 621.662 261.936 620.638 261.936C619.614 261.936 618.798 262.256 618.19 262.896C617.598 263.52 617.302 264.424 617.302 265.608V273H614.59V265.608C614.59 264.424 614.294 263.52 613.702 262.896C613.11 262.256 612.302 261.936 611.278 261.936C610.254 261.936 609.438 262.256 608.83 262.896C608.238 263.52 607.942 264.424 607.942 265.608V273H605.206V259.776H607.942V261.288C608.39 260.744 608.958 260.32 609.646 260.016C610.334 259.712 611.07 259.56 611.854 259.56C612.91 259.56 613.854 259.784 614.686 260.232C615.518 260.68 616.158 261.328 616.606 262.176C617.006 261.376 617.63 260.744 618.478 260.28C619.326 259.8 620.238 259.56 621.214 259.56ZM629.232 266.328C629.232 265 629.504 263.824 630.048 262.8C630.608 261.776 631.36 260.984 632.304 260.424C633.264 259.848 634.32 259.56 635.472 259.56C636.512 259.56 637.416 259.768 638.184 260.184C638.968 260.584 639.592 261.088 640.056 261.696V259.776H642.816V273H640.056V271.032C639.592 271.656 638.96 272.176 638.16 272.592C637.36 273.008 636.448 273.216 635.424 273.216C634.288 273.216 633.248 272.928 632.304 272.352C631.36 271.76 630.608 270.944 630.048 269.904C629.504 268.848 629.232 267.656 629.232 266.328ZM640.056 266.376C640.056 265.464 639.864 264.672 639.48 264C639.112 263.328 638.624 262.816 638.016 262.464C637.408 262.112 636.752 261.936 636.048 261.936C635.344 261.936 634.688 262.112 634.08 262.464C633.472 262.8 632.976 263.304 632.592 263.976C632.224 264.632 632.04 265.416 632.04 266.328C632.04 267.24 632.224 268.04 632.592 268.728C632.976 269.416 633.472 269.944 634.08 270.312C634.704 270.664 635.36 270.84 636.048 270.84C636.752 270.84 637.408 270.664 638.016 270.312C638.624 269.96 639.112 269.448 639.48 268.776C639.864 268.088 640.056 267.288 640.056 266.376ZM649.601 262.008V269.328C649.601 269.824 649.713 270.184 649.937 270.408C650.177 270.616 650.577 270.72 651.137 270.72H652.817V273H650.657C649.425 273 648.481 272.712 647.825 272.136C647.169 271.56 646.841 270.624 646.841 269.328V262.008H645.281V259.776H646.841V256.488H649.601V259.776H652.817V262.008H649.601ZM667.459 266.064C667.459 266.56 667.427 267.008 667.363 267.408H657.259C657.339 268.464 657.731 269.312 658.435 269.952C659.139 270.592 660.003 270.912 661.027 270.912C662.499 270.912 663.539 270.296 664.147 269.064H667.099C666.699 270.28 665.971 271.28 664.915 272.064C663.875 272.832 662.579 273.216 661.027 273.216C659.763 273.216 658.627 272.936 657.619 272.376C656.627 271.8 655.843 271 655.267 269.976C654.707 268.936 654.427 267.736 654.427 266.376C654.427 265.016 654.699 263.824 655.243 262.8C655.803 261.76 656.579 260.96 657.571 260.4C658.579 259.84 659.731 259.56 661.027 259.56C662.275 259.56 663.387 259.832 664.363 260.376C665.339 260.92 666.099 261.688 666.643 262.68C667.187 263.656 667.459 264.784 667.459 266.064ZM664.603 265.2C664.587 264.192 664.227 263.384 663.523 262.776C662.819 262.168 661.947 261.864 660.907 261.864C659.963 261.864 659.155 262.168 658.483 262.776C657.811 263.368 657.411 264.176 657.283 265.2H664.603ZM682.128 259.776V273H679.392V271.44C678.96 271.984 678.392 272.416 677.688 272.736C677 273.04 676.264 273.192 675.48 273.192C674.44 273.192 673.504 272.976 672.672 272.544C671.856 272.112 671.208 271.472 670.728 270.624C670.264 269.776 670.032 268.752 670.032 267.552V259.776H672.744V267.144C672.744 268.328 673.04 269.24 673.632 269.88C674.224 270.504 675.032 270.816 676.056 270.816C677.08 270.816 677.888 270.504 678.48 269.88C679.088 269.24 679.392 268.328 679.392 267.144V259.776H682.128ZM688.474 261.696C688.874 261.024 689.402 260.504 690.058 260.136C690.73 259.752 691.522 259.56 692.434 259.56V262.392H691.738C690.666 262.392 689.85 262.664 689.29 263.208C688.746 263.752 688.474 264.696 688.474 266.04V273H685.738V259.776H688.474V261.696ZM700.271 266.328C700.271 265 700.543 263.824 701.087 262.8C701.647 261.776 702.399 260.984 703.343 260.424C704.303 259.848 705.359 259.56 706.511 259.56C707.551 259.56 708.455 259.768 709.223 260.184C710.007 260.584 710.631 261.088 711.095 261.696V259.776H713.855V273H711.095V271.032C710.631 271.656 709.999 272.176 709.199 272.592C708.399 273.008 707.487 273.216 706.463 273.216C705.327 273.216 704.287 272.928 703.343 272.352C702.399 271.76 701.647 270.944 701.087 269.904C700.543 268.848 700.271 267.656 700.271 266.328ZM711.095 266.376C711.095 265.464 710.903 264.672 710.519 264C710.151 263.328 709.663 262.816 709.055 262.464C708.447 262.112 707.791 261.936 707.087 261.936C706.383 261.936 705.727 262.112 705.119 262.464C704.511 262.8 704.015 263.304 703.631 263.976C703.263 264.632 703.079 265.416 703.079 266.328C703.079 267.24 703.263 268.04 703.631 268.728C704.015 269.416 704.511 269.944 705.119 270.312C705.743 270.664 706.399 270.84 707.087 270.84C707.791 270.84 708.447 270.664 709.055 270.312C709.663 269.96 710.151 269.448 710.519 268.776C710.903 268.088 711.095 267.288 711.095 266.376ZM709.991 256.824V258.84L704.687 256.224V253.896L709.991 256.824ZM726.875 262.008V269.328C726.875 269.824 726.987 270.184 727.211 270.408C727.451 270.616 727.851 270.72 728.411 270.72H730.091V273H727.931C726.699 273 725.755 272.712 725.099 272.136C724.443 271.56 724.115 270.624 724.115 269.328V262.008H722.555V259.776H724.115V256.488H726.875V259.776H730.091V262.008H726.875ZM735.349 261.696C735.749 261.024 736.277 260.504 736.933 260.136C737.605 259.752 738.397 259.56 739.309 259.56V262.392H738.613C737.541 262.392 736.725 262.664 736.165 263.208C735.621 263.752 735.349 264.696 735.349 266.04V273H732.613V259.776H735.349V261.696ZM740.911 266.328C740.911 265 741.183 263.824 741.727 262.8C742.287 261.776 743.039 260.984 743.983 260.424C744.943 259.848 745.999 259.56 747.151 259.56C748.191 259.56 749.095 259.768 749.863 260.184C750.647 260.584 751.271 261.088 751.735 261.696V259.776H754.495V273H751.735V271.032C751.271 271.656 750.639 272.176 749.839 272.592C749.039 273.008 748.127 273.216 747.103 273.216C745.967 273.216 744.927 272.928 743.983 272.352C743.039 271.76 742.287 270.944 741.727 269.904C741.183 268.848 740.911 267.656 740.911 266.328ZM751.735 266.376C751.735 265.464 751.543 264.672 751.159 264C750.791 263.328 750.303 262.816 749.695 262.464C749.087 262.112 748.431 261.936 747.727 261.936C747.023 261.936 746.367 262.112 745.759 262.464C745.151 262.8 744.655 263.304 744.271 263.976C743.903 264.632 743.719 265.416 743.719 266.328C743.719 267.24 743.903 268.04 744.271 268.728C744.655 269.416 745.151 269.944 745.759 270.312C746.383 270.664 747.039 270.84 747.727 270.84C748.431 270.84 749.087 270.664 749.695 270.312C750.303 269.96 750.791 269.448 751.159 268.776C751.543 268.088 751.735 267.288 751.735 266.376ZM763.201 270.552L766.945 259.776H769.849L764.809 273H761.545L756.529 259.776H759.457L763.201 270.552ZM784.037 266.064C784.037 266.56 784.005 267.008 783.941 267.408H773.837C773.917 268.464 774.309 269.312 775.013 269.952C775.717 270.592 776.581 270.912 777.605 270.912C779.077 270.912 780.117 270.296 780.725 269.064H783.677C783.277 270.28 782.549 271.28 781.493 272.064C780.453 272.832 779.157 273.216 777.605 273.216C776.341 273.216 775.205 272.936 774.197 272.376C773.205 271.8 772.421 271 771.845 269.976C771.285 268.936 771.005 267.736 771.005 266.376C771.005 265.016 771.277 263.824 771.821 262.8C772.381 261.76 773.157 260.96 774.149 260.4C775.157 259.84 776.309 259.56 777.605 259.56C778.853 259.56 779.965 259.832 780.941 260.376C781.917 260.92 782.677 261.688 783.221 262.68C783.765 263.656 784.037 264.784 784.037 266.064ZM781.181 265.2C781.165 264.192 780.805 263.384 780.101 262.776C779.397 262.168 778.525 261.864 777.485 261.864C776.541 261.864 775.733 262.168 775.061 262.776C774.389 263.368 773.989 264.176 773.861 265.2H781.181ZM789.466 261.696C789.866 261.024 790.394 260.504 791.05 260.136C791.722 259.752 792.514 259.56 793.426 259.56V262.392H792.73C791.658 262.392 790.842 262.664 790.282 263.208C789.738 263.752 789.466 264.696 789.466 266.04V273H786.73V259.776H789.466V261.696ZM800.741 273.216C799.701 273.216 798.765 273.032 797.933 272.664C797.117 272.28 796.469 271.768 795.989 271.128C795.509 270.472 795.253 269.744 795.221 268.944H798.053C798.101 269.504 798.365 269.976 798.845 270.36C799.341 270.728 799.957 270.912 800.693 270.912C801.461 270.912 802.053 270.768 802.469 270.48C802.901 270.176 803.117 269.792 803.117 269.328C803.117 268.832 802.877 268.464 802.397 268.224C801.933 267.984 801.189 267.72 800.165 267.432C799.173 267.16 798.365 266.896 797.741 266.64C797.117 266.384 796.573 265.992 796.109 265.464C795.661 264.936 795.437 264.24 795.437 263.376C795.437 262.672 795.645 262.032 796.061 261.456C796.477 260.864 797.069 260.4 797.837 260.064C798.621 259.728 799.517 259.56 800.525 259.56C802.029 259.56 803.237 259.944 804.149 260.712C805.077 261.464 805.573 262.496 805.637 263.808H802.901C802.853 263.216 802.613 262.744 802.181 262.392C801.749 262.04 801.165 261.864 800.429 261.864C799.709 261.864 799.157 262 798.773 262.272C798.389 262.544 798.197 262.904 798.197 263.352C798.197 263.704 798.325 264 798.581 264.24C798.837 264.48 799.149 264.672 799.517 264.816C799.885 264.944 800.429 265.112 801.149 265.32C802.109 265.576 802.893 265.84 803.501 266.112C804.125 266.368 804.661 266.752 805.109 267.264C805.557 267.776 805.789 268.456 805.805 269.304C805.805 270.056 805.597 270.728 805.181 271.32C804.765 271.912 804.173 272.376 803.405 272.712C802.653 273.048 801.765 273.216 800.741 273.216ZM471.536 291.24V309H468.8V291.24H471.536ZM475.56 292.32H478.536L476.016 298.032H474.096L475.56 292.32ZM480.029 302.328C480.029 301 480.301 299.824 480.845 298.8C481.405 297.776 482.157 296.984 483.101 296.424C484.061 295.848 485.117 295.56 486.269 295.56C487.309 295.56 488.213 295.768 488.981 296.184C489.765 296.584 490.389 297.088 490.853 297.696V295.776H493.613V309H490.853V307.032C490.389 307.656 489.757 308.176 488.957 308.592C488.157 309.008 487.245 309.216 486.221 309.216C485.085 309.216 484.045 308.928 483.101 308.352C482.157 307.76 481.405 306.944 480.845 305.904C480.301 304.848 480.029 303.656 480.029 302.328ZM490.853 302.376C490.853 301.464 490.661 300.672 490.277 300C489.909 299.328 489.421 298.816 488.813 298.464C488.205 298.112 487.549 297.936 486.845 297.936C486.141 297.936 485.485 298.112 484.877 298.464C484.269 298.8 483.773 299.304 483.389 299.976C483.021 300.632 482.837 301.416 482.837 302.328C482.837 303.24 483.021 304.04 483.389 304.728C483.773 305.416 484.269 305.944 484.877 306.312C485.501 306.664 486.157 306.84 486.845 306.84C487.549 306.84 488.205 306.664 488.813 306.312C489.421 305.96 489.909 305.448 490.277 304.776C490.661 304.088 490.853 303.288 490.853 302.376ZM502.75 298.008H500.302V309H497.542V298.008H495.982V295.776H497.542V294.84C497.542 293.32 497.942 292.216 498.742 291.528C499.558 290.824 500.83 290.472 502.558 290.472V292.752C501.726 292.752 501.142 292.912 500.806 293.232C500.47 293.536 500.302 294.072 500.302 294.84V295.776H502.75V298.008ZM507.911 297.696C508.311 297.024 508.839 296.504 509.495 296.136C510.167 295.752 510.959 295.56 511.871 295.56V298.392H511.175C510.103 298.392 509.287 298.664 508.727 299.208C508.183 299.752 507.911 300.696 507.911 302.04V309H505.175V295.776H507.911V297.696ZM515.778 294.024C515.282 294.024 514.866 293.856 514.53 293.52C514.194 293.184 514.026 292.768 514.026 292.272C514.026 291.776 514.194 291.36 514.53 291.024C514.866 290.688 515.282 290.52 515.778 290.52C516.258 290.52 516.666 290.688 517.002 291.024C517.338 291.36 517.506 291.776 517.506 292.272C517.506 292.768 517.338 293.184 517.002 293.52C516.666 293.856 516.258 294.024 515.778 294.024ZM517.122 295.776V309H514.386V295.776H517.122ZM519.802 302.328C519.802 301 520.074 299.824 520.618 298.8C521.178 297.776 521.93 296.984 522.874 296.424C523.834 295.848 524.898 295.56 526.066 295.56C527.09 295.56 527.994 295.768 528.778 296.184C529.578 296.6 530.194 297.104 530.626 297.696V295.776H533.386V315.288H530.626V307.08C530.194 307.672 529.57 308.176 528.754 308.592C527.938 309.008 527.01 309.216 525.97 309.216C524.834 309.216 523.794 308.928 522.85 308.352C521.922 307.76 521.178 306.944 520.618 305.904C520.074 304.848 519.802 303.656 519.802 302.328ZM530.626 302.376C530.626 301.464 530.434 300.672 530.05 300C529.682 299.328 529.194 298.816 528.586 298.464C527.978 298.112 527.322 297.936 526.618 297.936C525.914 297.936 525.258 298.112 524.65 298.464C524.042 298.8 523.546 299.304 523.162 299.976C522.794 300.632 522.61 301.416 522.61 302.328C522.61 303.24 522.794 304.04 523.162 304.728C523.546 305.416 524.042 305.944 524.65 306.312C525.274 306.664 525.93 306.84 526.618 306.84C527.322 306.84 527.978 306.664 528.586 306.312C529.194 305.96 529.682 305.448 530.05 304.776C530.434 304.088 530.626 303.288 530.626 302.376ZM548.956 295.776V309H546.22V307.44C545.788 307.984 545.22 308.416 544.516 308.736C543.828 309.04 543.092 309.192 542.308 309.192C541.268 309.192 540.332 308.976 539.5 308.544C538.684 308.112 538.036 307.472 537.556 306.624C537.092 305.776 536.86 304.752 536.86 303.552V295.776H539.572V303.144C539.572 304.328 539.868 305.24 540.46 305.88C541.052 306.504 541.86 306.816 542.884 306.816C543.908 306.816 544.716 306.504 545.308 305.88C545.916 305.24 546.22 304.328 546.22 303.144V295.776H548.956ZM564.686 302.064C564.686 302.56 564.654 303.008 564.59 303.408H554.486C554.566 304.464 554.958 305.312 555.662 305.952C556.366 306.592 557.23 306.912 558.254 306.912C559.726 306.912 560.766 306.296 561.374 305.064H564.326C563.926 306.28 563.198 307.28 562.142 308.064C561.102 308.832 559.806 309.216 558.254 309.216C556.99 309.216 555.854 308.936 554.846 308.376C553.854 307.8 553.07 307 552.494 305.976C551.934 304.936 551.654 303.736 551.654 302.376C551.654 301.016 551.926 299.824 552.47 298.8C553.03 297.76 553.806 296.96 554.798 296.4C555.806 295.84 556.958 295.56 558.254 295.56C559.502 295.56 560.614 295.832 561.59 296.376C562.566 296.92 563.326 297.688 563.87 298.68C564.414 299.656 564.686 300.784 564.686 302.064ZM561.83 301.2C561.814 300.192 561.454 299.384 560.75 298.776C560.046 298.168 559.174 297.864 558.134 297.864C557.19 297.864 556.382 298.168 555.71 298.776C555.038 299.368 554.638 300.176 554.51 301.2H561.83Z" fill="white"/>
<path d="M891.475 186.39C891.585 182.027 892.85 178.69 895.27 176.38C897.727 174.07 901.192 172.915 905.665 172.915C908.562 172.915 911.037 173.41 913.09 174.4C915.143 175.39 916.683 176.728 917.71 178.415C918.773 180.102 919.305 182.008 919.305 184.135C919.305 186.702 918.7 188.718 917.49 190.185C916.28 191.615 914.923 192.587 913.42 193.1V193.32C917.82 194.97 920.02 198.032 920.02 202.505C920.02 204.852 919.47 206.923 918.37 208.72C917.27 210.517 915.693 211.91 913.64 212.9C911.623 213.89 909.222 214.385 906.435 214.385C901.668 214.385 897.928 213.248 895.215 210.975C892.502 208.702 891.108 205.145 891.035 200.305H902.915C902.842 201.625 903.025 202.633 903.465 203.33C903.942 203.99 904.748 204.32 905.885 204.32C906.545 204.32 907.095 204.082 907.535 203.605C907.975 203.092 908.195 202.432 908.195 201.625C908.195 200.598 907.847 199.828 907.15 199.315C906.49 198.765 905.353 198.49 903.74 198.49H901.705V188.645H903.685C906.178 188.792 907.425 187.802 907.425 185.675C907.425 184.758 907.223 184.08 906.82 183.64C906.453 183.2 905.977 182.98 905.39 182.98C904.033 182.98 903.355 184.117 903.355 186.39H891.475ZM981.739 175.06V214H969.584V194.585L963.589 214H953.139L947.144 194.585V214H934.934V175.06H949.894L958.474 198.435L966.834 175.06H981.739ZM999.458 175.06V214H987.248V175.06H999.458ZM1017.18 204.76H1028.95V214H1004.97V175.06H1017.18V204.76ZM1045 204.76H1056.77V214H1032.79V175.06H1045V204.76ZM1072.83 175.06V214H1060.62V175.06H1072.83ZM1097.32 214.385C1093.65 214.385 1090.28 213.523 1087.2 211.8C1084.15 210.077 1081.73 207.693 1079.94 204.65C1078.14 201.607 1077.24 198.178 1077.24 194.365C1077.24 190.552 1078.14 187.123 1079.94 184.08C1081.73 181.037 1084.15 178.672 1087.2 176.985C1090.28 175.262 1093.65 174.4 1097.32 174.4C1100.98 174.4 1104.34 175.262 1107.38 176.985C1110.43 178.672 1112.83 181.037 1114.59 184.08C1116.38 187.123 1117.28 190.552 1117.28 194.365C1117.28 198.178 1116.38 201.607 1114.59 204.65C1112.83 207.693 1110.41 210.077 1107.33 211.8C1104.28 213.523 1100.95 214.385 1097.32 214.385ZM1097.32 203C1099.74 203 1101.61 202.23 1102.93 200.69C1104.25 199.113 1104.91 197.005 1104.91 194.365C1104.91 191.688 1104.25 189.58 1102.93 188.04C1101.61 186.463 1099.74 185.675 1097.32 185.675C1094.86 185.675 1092.97 186.463 1091.65 188.04C1090.33 189.58 1089.67 191.688 1089.67 194.365C1089.67 197.005 1090.33 199.113 1091.65 200.69C1092.97 202.23 1094.86 203 1097.32 203ZM1159.03 214H1146.82L1133.9 194.42V214H1121.69V175.06H1133.9L1146.82 194.97V175.06H1159.03V214ZM1179.78 214.385C1175.13 214.385 1171.28 213.303 1168.23 211.14C1165.23 208.94 1163.59 205.732 1163.34 201.515H1176.32C1176.5 203.752 1177.49 204.87 1179.29 204.87C1179.95 204.87 1180.5 204.723 1180.94 204.43C1181.41 204.1 1181.65 203.605 1181.65 202.945C1181.65 202.028 1181.16 201.295 1180.17 200.745C1179.18 200.158 1177.64 199.498 1175.55 198.765C1173.05 197.885 1170.98 197.023 1169.33 196.18C1167.72 195.337 1166.33 194.108 1165.15 192.495C1163.98 190.882 1163.41 188.81 1163.45 186.28C1163.45 183.75 1164.09 181.605 1165.37 179.845C1166.69 178.048 1168.47 176.692 1170.71 175.775C1172.98 174.858 1175.53 174.4 1178.35 174.4C1183.12 174.4 1186.9 175.5 1189.68 177.7C1192.51 179.9 1193.99 182.998 1194.14 186.995H1180.99C1180.96 185.895 1180.68 185.107 1180.17 184.63C1179.65 184.153 1179.03 183.915 1178.3 183.915C1177.78 183.915 1177.36 184.098 1177.03 184.465C1176.7 184.795 1176.54 185.272 1176.54 185.895C1176.54 186.775 1177.01 187.508 1177.97 188.095C1178.96 188.645 1180.52 189.323 1182.64 190.13C1185.1 191.047 1187.12 191.927 1188.69 192.77C1190.31 193.613 1191.7 194.787 1192.87 196.29C1194.05 197.793 1194.63 199.682 1194.63 201.955C1194.63 204.338 1194.05 206.483 1192.87 208.39C1191.7 210.26 1189.99 211.727 1187.76 212.79C1185.52 213.853 1182.86 214.385 1179.78 214.385Z" fill="white"/>
<path d="M896.248 256.32C898.024 256.32 899.576 256.664 900.904 257.352C902.248 258.024 903.28 259 904 260.28C904.736 261.544 905.104 263.024 905.104 264.72C905.104 266.416 904.736 267.888 904 269.136C903.28 270.384 902.248 271.344 900.904 272.016C899.576 272.672 898.024 273 896.248 273H890.8V256.32H896.248ZM896.248 270.768C898.2 270.768 899.696 270.24 900.736 269.184C901.776 268.128 902.296 266.64 902.296 264.72C902.296 262.784 901.776 261.272 900.736 260.184C899.696 259.096 898.2 258.552 896.248 258.552H893.536V270.768H896.248ZM919.936 266.064C919.936 266.56 919.904 267.008 919.84 267.408H909.736C909.816 268.464 910.208 269.312 910.912 269.952C911.616 270.592 912.48 270.912 913.504 270.912C914.976 270.912 916.016 270.296 916.624 269.064H919.576C919.176 270.28 918.448 271.28 917.392 272.064C916.352 272.832 915.056 273.216 913.504 273.216C912.24 273.216 911.104 272.936 910.096 272.376C909.104 271.8 908.32 271 907.744 269.976C907.184 268.936 906.904 267.736 906.904 266.376C906.904 265.016 907.176 263.824 907.72 262.8C908.28 261.76 909.056 260.96 910.048 260.4C911.056 259.84 912.208 259.56 913.504 259.56C914.752 259.56 915.864 259.832 916.84 260.376C917.816 260.92 918.576 261.688 919.12 262.68C919.664 263.656 919.936 264.784 919.936 266.064ZM917.08 265.2C917.064 264.192 916.704 263.384 916 262.776C915.296 262.168 914.424 261.864 913.384 261.864C912.44 261.864 911.632 262.168 910.96 262.776C910.288 263.368 909.888 264.176 909.76 265.2H917.08ZM927.951 266.376C927.951 265.016 928.223 263.824 928.767 262.8C929.327 261.76 930.095 260.96 931.071 260.4C932.047 259.84 933.167 259.56 934.431 259.56C936.031 259.56 937.351 259.944 938.391 260.712C939.447 261.464 940.159 262.544 940.527 263.952H937.575C937.335 263.296 936.951 262.784 936.423 262.416C935.895 262.048 935.231 261.864 934.431 261.864C933.311 261.864 932.415 262.264 931.743 263.064C931.087 263.848 930.759 264.952 930.759 266.376C930.759 267.8 931.087 268.912 931.743 269.712C932.415 270.512 933.311 270.912 934.431 270.912C936.015 270.912 937.063 270.216 937.575 268.824H940.527C940.143 270.168 939.423 271.24 938.367 272.04C937.311 272.824 935.999 273.216 934.431 273.216C933.167 273.216 932.047 272.936 931.071 272.376C930.095 271.8 929.327 271 928.767 269.976C928.223 268.936 927.951 267.736 927.951 266.376ZM948.989 273.216C947.741 273.216 946.613 272.936 945.605 272.376C944.597 271.8 943.805 271 943.229 269.976C942.653 268.936 942.365 267.736 942.365 266.376C942.365 265.032 942.661 263.84 943.253 262.8C943.845 261.76 944.653 260.96 945.677 260.4C946.701 259.84 947.845 259.56 949.109 259.56C950.373 259.56 951.517 259.84 952.541 260.4C953.565 260.96 954.373 261.76 954.965 262.8C955.557 263.84 955.853 265.032 955.853 266.376C955.853 267.72 955.549 268.912 954.941 269.952C954.333 270.992 953.501 271.8 952.445 272.376C951.405 272.936 950.253 273.216 948.989 273.216ZM948.989 270.84C949.693 270.84 950.349 270.672 950.957 270.336C951.581 270 952.085 269.496 952.469 268.824C952.853 268.152 953.045 267.336 953.045 266.376C953.045 265.416 952.861 264.608 952.493 263.952C952.125 263.28 951.637 262.776 951.029 262.44C950.421 262.104 949.765 261.936 949.061 261.936C948.357 261.936 947.701 262.104 947.093 262.44C946.501 262.776 946.029 263.28 945.677 263.952C945.325 264.608 945.149 265.416 945.149 266.376C945.149 267.8 945.509 268.904 946.229 269.688C946.965 270.456 947.885 270.84 948.989 270.84ZM965.23 259.56C966.27 259.56 967.198 259.776 968.014 260.208C968.846 260.64 969.494 261.28 969.958 262.128C970.422 262.976 970.654 264 970.654 265.2V273H967.942V265.608C967.942 264.424 967.646 263.52 967.054 262.896C966.462 262.256 965.654 261.936 964.63 261.936C963.606 261.936 962.79 262.256 962.182 262.896C961.59 263.52 961.294 264.424 961.294 265.608V273H958.558V259.776H961.294V261.288C961.742 260.744 962.31 260.32 962.998 260.016C963.702 259.712 964.446 259.56 965.23 259.56ZM978.944 273.216C977.904 273.216 976.968 273.032 976.136 272.664C975.32 272.28 974.672 271.768 974.192 271.128C973.712 270.472 973.456 269.744 973.424 268.944H976.256C976.304 269.504 976.568 269.976 977.048 270.36C977.544 270.728 978.16 270.912 978.896 270.912C979.664 270.912 980.256 270.768 980.672 270.48C981.104 270.176 981.32 269.792 981.32 269.328C981.32 268.832 981.08 268.464 980.6 268.224C980.136 267.984 979.392 267.72 978.368 267.432C977.376 267.16 976.568 266.896 975.944 266.64C975.32 266.384 974.776 265.992 974.312 265.464C973.864 264.936 973.64 264.24 973.64 263.376C973.64 262.672 973.848 262.032 974.264 261.456C974.68 260.864 975.272 260.4 976.04 260.064C976.824 259.728 977.72 259.56 978.728 259.56C980.232 259.56 981.44 259.944 982.352 260.712C983.28 261.464 983.776 262.496 983.84 263.808H981.104C981.056 263.216 980.816 262.744 980.384 262.392C979.952 262.04 979.368 261.864 978.632 261.864C977.912 261.864 977.36 262 976.976 262.272C976.592 262.544 976.4 262.904 976.4 263.352C976.4 263.704 976.528 264 976.784 264.24C977.04 264.48 977.352 264.672 977.72 264.816C978.088 264.944 978.632 265.112 979.352 265.32C980.312 265.576 981.096 265.84 981.704 266.112C982.328 266.368 982.864 266.752 983.312 267.264C983.76 267.776 983.992 268.456 984.008 269.304C984.008 270.056 983.8 270.728 983.384 271.32C982.968 271.912 982.376 272.376 981.608 272.712C980.856 273.048 979.968 273.216 978.944 273.216ZM992.7 273.216C991.452 273.216 990.324 272.936 989.316 272.376C988.308 271.8 987.516 271 986.94 269.976C986.364 268.936 986.076 267.736 986.076 266.376C986.076 265.032 986.372 263.84 986.964 262.8C987.556 261.76 988.364 260.96 989.388 260.4C990.412 259.84 991.556 259.56 992.82 259.56C994.084 259.56 995.228 259.84 996.252 260.4C997.276 260.96 998.084 261.76 998.676 262.8C999.268 263.84 999.564 265.032 999.564 266.376C999.564 267.72 999.26 268.912 998.652 269.952C998.044 270.992 997.212 271.8 996.156 272.376C995.116 272.936 993.964 273.216 992.7 273.216ZM992.7 270.84C993.404 270.84 994.06 270.672 994.668 270.336C995.292 270 995.796 269.496 996.18 268.824C996.564 268.152 996.756 267.336 996.756 266.376C996.756 265.416 996.572 264.608 996.204 263.952C995.836 263.28 995.348 262.776 994.74 262.44C994.132 262.104 993.476 261.936 992.772 261.936C992.068 261.936 991.412 262.104 990.804 262.44C990.212 262.776 989.74 263.28 989.388 263.952C989.036 264.608 988.86 265.416 988.86 266.376C988.86 267.8 989.22 268.904 989.94 269.688C990.676 270.456 991.596 270.84 992.7 270.84ZM1018.28 259.56C1019.32 259.56 1020.24 259.776 1021.06 260.208C1021.89 260.64 1022.54 261.28 1023 262.128C1023.48 262.976 1023.72 264 1023.72 265.2V273H1021.01V265.608C1021.01 264.424 1020.72 263.52 1020.12 262.896C1019.53 262.256 1018.72 261.936 1017.7 261.936C1016.68 261.936 1015.86 262.256 1015.25 262.896C1014.66 263.52 1014.36 264.424 1014.36 265.608V273H1011.65V265.608C1011.65 264.424 1011.36 263.52 1010.76 262.896C1010.17 262.256 1009.36 261.936 1008.34 261.936C1007.32 261.936 1006.5 262.256 1005.89 262.896C1005.3 263.52 1005 264.424 1005 265.608V273H1002.27V259.776H1005V261.288C1005.45 260.744 1006.02 260.32 1006.71 260.016C1007.4 259.712 1008.13 259.56 1008.92 259.56C1009.97 259.56 1010.92 259.784 1011.75 260.232C1012.58 260.68 1013.22 261.328 1013.67 262.176C1014.07 261.376 1014.69 260.744 1015.54 260.28C1016.39 259.8 1017.3 259.56 1018.28 259.56ZM1043.21 259.56C1044.25 259.56 1045.18 259.776 1046 260.208C1046.83 260.64 1047.48 261.28 1047.94 262.128C1048.42 262.976 1048.66 264 1048.66 265.2V273H1045.95V265.608C1045.95 264.424 1045.65 263.52 1045.06 262.896C1044.47 262.256 1043.66 261.936 1042.64 261.936C1041.61 261.936 1040.8 262.256 1040.19 262.896C1039.6 263.52 1039.3 264.424 1039.3 265.608V273H1036.59V265.608C1036.59 264.424 1036.29 263.52 1035.7 262.896C1035.11 262.256 1034.3 261.936 1033.28 261.936C1032.25 261.936 1031.44 262.256 1030.83 262.896C1030.24 263.52 1029.94 264.424 1029.94 265.608V273H1027.21V259.776H1029.94V261.288C1030.39 260.744 1030.96 260.32 1031.65 260.016C1032.33 259.712 1033.07 259.56 1033.85 259.56C1034.91 259.56 1035.85 259.784 1036.69 260.232C1037.52 260.68 1038.16 261.328 1038.61 262.176C1039.01 261.376 1039.63 260.744 1040.48 260.28C1041.33 259.8 1042.24 259.56 1043.21 259.56ZM1051.23 266.328C1051.23 265 1051.5 263.824 1052.05 262.8C1052.61 261.776 1053.36 260.984 1054.3 260.424C1055.26 259.848 1056.32 259.56 1057.47 259.56C1058.51 259.56 1059.42 259.768 1060.18 260.184C1060.97 260.584 1061.59 261.088 1062.06 261.696V259.776H1064.82V273H1062.06V271.032C1061.59 271.656 1060.96 272.176 1060.16 272.592C1059.36 273.008 1058.45 273.216 1057.42 273.216C1056.29 273.216 1055.25 272.928 1054.3 272.352C1053.36 271.76 1052.61 270.944 1052.05 269.904C1051.5 268.848 1051.23 267.656 1051.23 266.328ZM1062.06 266.376C1062.06 265.464 1061.86 264.672 1061.48 264C1061.11 263.328 1060.62 262.816 1060.02 262.464C1059.41 262.112 1058.75 261.936 1058.05 261.936C1057.34 261.936 1056.69 262.112 1056.08 262.464C1055.47 262.8 1054.98 263.304 1054.59 263.976C1054.22 264.632 1054.04 265.416 1054.04 266.328C1054.04 267.24 1054.22 268.04 1054.59 268.728C1054.98 269.416 1055.47 269.944 1056.08 270.312C1056.7 270.664 1057.36 270.84 1058.05 270.84C1058.75 270.84 1059.41 270.664 1060.02 270.312C1060.62 269.96 1061.11 269.448 1061.48 268.776C1061.86 268.088 1062.06 267.288 1062.06 266.376ZM1071.6 262.008V269.328C1071.6 269.824 1071.71 270.184 1071.94 270.408C1072.18 270.616 1072.58 270.72 1073.14 270.72H1074.82V273H1072.66C1071.43 273 1070.48 272.712 1069.83 272.136C1069.17 271.56 1068.84 270.624 1068.84 269.328V262.008H1067.28V259.776H1068.84V256.488H1071.6V259.776H1074.82V262.008H1071.6ZM1089.46 266.064C1089.46 266.56 1089.43 267.008 1089.36 267.408H1079.26C1079.34 268.464 1079.73 269.312 1080.44 269.952C1081.14 270.592 1082 270.912 1083.03 270.912C1084.5 270.912 1085.54 270.296 1086.15 269.064H1089.1C1088.7 270.28 1087.97 271.28 1086.92 272.064C1085.88 272.832 1084.58 273.216 1083.03 273.216C1081.76 273.216 1080.63 272.936 1079.62 272.376C1078.63 271.8 1077.84 271 1077.27 269.976C1076.71 268.936 1076.43 267.736 1076.43 266.376C1076.43 265.016 1076.7 263.824 1077.24 262.8C1077.8 261.76 1078.58 260.96 1079.57 260.4C1080.58 259.84 1081.73 259.56 1083.03 259.56C1084.28 259.56 1085.39 259.832 1086.36 260.376C1087.34 260.92 1088.1 261.688 1088.64 262.68C1089.19 263.656 1089.46 264.784 1089.46 266.064ZM1086.6 265.2C1086.59 264.192 1086.23 263.384 1085.52 262.776C1084.82 262.168 1083.95 261.864 1082.91 261.864C1081.96 261.864 1081.16 262.168 1080.48 262.776C1079.81 263.368 1079.41 264.176 1079.28 265.2H1086.6ZM1104.13 259.776V273H1101.39V271.44C1100.96 271.984 1100.39 272.416 1099.69 272.736C1099 273.04 1098.26 273.192 1097.48 273.192C1096.44 273.192 1095.5 272.976 1094.67 272.544C1093.86 272.112 1093.21 271.472 1092.73 270.624C1092.26 269.776 1092.03 268.752 1092.03 267.552V259.776H1094.74V267.144C1094.74 268.328 1095.04 269.24 1095.63 269.88C1096.22 270.504 1097.03 270.816 1098.06 270.816C1099.08 270.816 1099.89 270.504 1100.48 269.88C1101.09 269.24 1101.39 268.328 1101.39 267.144V259.776H1104.13ZM1110.47 261.696C1110.87 261.024 1111.4 260.504 1112.06 260.136C1112.73 259.752 1113.52 259.56 1114.43 259.56V262.392H1113.74C1112.67 262.392 1111.85 262.664 1111.29 263.208C1110.75 263.752 1110.47 264.696 1110.47 266.04V273H1107.74V259.776H1110.47V261.696ZM1122.27 266.328C1122.27 265 1122.54 263.824 1123.09 262.8C1123.65 261.776 1124.4 260.984 1125.34 260.424C1126.3 259.848 1127.36 259.56 1128.51 259.56C1129.55 259.56 1130.45 259.768 1131.22 260.184C1132.01 260.584 1132.63 261.088 1133.09 261.696V259.776H1135.85V273H1133.09V271.032C1132.63 271.656 1132 272.176 1131.2 272.592C1130.4 273.008 1129.49 273.216 1128.46 273.216C1127.33 273.216 1126.29 272.928 1125.34 272.352C1124.4 271.76 1123.65 270.944 1123.09 269.904C1122.54 268.848 1122.27 267.656 1122.27 266.328ZM1133.09 266.376C1133.09 265.464 1132.9 264.672 1132.52 264C1132.15 263.328 1131.66 262.816 1131.05 262.464C1130.45 262.112 1129.79 261.936 1129.09 261.936C1128.38 261.936 1127.73 262.112 1127.12 262.464C1126.51 262.8 1126.01 263.304 1125.63 263.976C1125.26 264.632 1125.08 265.416 1125.08 266.328C1125.08 267.24 1125.26 268.04 1125.63 268.728C1126.01 269.416 1126.51 269.944 1127.12 270.312C1127.74 270.664 1128.4 270.84 1129.09 270.84C1129.79 270.84 1130.45 270.664 1131.05 270.312C1131.66 269.96 1132.15 269.448 1132.52 268.776C1132.9 268.088 1133.09 267.288 1133.09 266.376ZM1131.99 256.824V258.84L1126.69 256.224V253.896L1131.99 256.824ZM1148.87 262.008V269.328C1148.87 269.824 1148.99 270.184 1149.21 270.408C1149.45 270.616 1149.85 270.72 1150.41 270.72H1152.09V273H1149.93C1148.7 273 1147.75 272.712 1147.1 272.136C1146.44 271.56 1146.11 270.624 1146.11 269.328V262.008H1144.55V259.776H1146.11V256.488H1148.87V259.776H1152.09V262.008H1148.87ZM1157.35 261.696C1157.75 261.024 1158.28 260.504 1158.93 260.136C1159.6 259.752 1160.4 259.56 1161.31 259.56V262.392H1160.61C1159.54 262.392 1158.72 262.664 1158.16 263.208C1157.62 263.752 1157.35 264.696 1157.35 266.04V273H1154.61V259.776H1157.35V261.696ZM1162.91 266.328C1162.91 265 1163.18 263.824 1163.73 262.8C1164.29 261.776 1165.04 260.984 1165.98 260.424C1166.94 259.848 1168 259.56 1169.15 259.56C1170.19 259.56 1171.1 259.768 1171.86 260.184C1172.65 260.584 1173.27 261.088 1173.74 261.696V259.776H1176.5V273H1173.74V271.032C1173.27 271.656 1172.64 272.176 1171.84 272.592C1171.04 273.008 1170.13 273.216 1169.1 273.216C1167.97 273.216 1166.93 272.928 1165.98 272.352C1165.04 271.76 1164.29 270.944 1163.73 269.904C1163.18 268.848 1162.91 267.656 1162.91 266.328ZM1173.74 266.376C1173.74 265.464 1173.54 264.672 1173.16 264C1172.79 263.328 1172.3 262.816 1171.7 262.464C1171.09 262.112 1170.43 261.936 1169.73 261.936C1169.02 261.936 1168.37 262.112 1167.76 262.464C1167.15 262.8 1166.66 263.304 1166.27 263.976C1165.9 264.632 1165.72 265.416 1165.72 266.328C1165.72 267.24 1165.9 268.04 1166.27 268.728C1166.66 269.416 1167.15 269.944 1167.76 270.312C1168.38 270.664 1169.04 270.84 1169.73 270.84C1170.43 270.84 1171.09 270.664 1171.7 270.312C1172.3 269.96 1172.79 269.448 1173.16 268.776C1173.54 268.088 1173.74 267.288 1173.74 266.376ZM1185.2 270.552L1188.95 259.776H1191.85L1186.81 273H1183.55L1178.53 259.776H1181.46L1185.2 270.552ZM1206.04 266.064C1206.04 266.56 1206.01 267.008 1205.94 267.408H1195.84C1195.92 268.464 1196.31 269.312 1197.01 269.952C1197.72 270.592 1198.58 270.912 1199.61 270.912C1201.08 270.912 1202.12 270.296 1202.73 269.064H1205.68C1205.28 270.28 1204.55 271.28 1203.49 272.064C1202.45 272.832 1201.16 273.216 1199.61 273.216C1198.34 273.216 1197.21 272.936 1196.2 272.376C1195.21 271.8 1194.42 271 1193.85 269.976C1193.29 268.936 1193.01 267.736 1193.01 266.376C1193.01 265.016 1193.28 263.824 1193.82 262.8C1194.38 261.76 1195.16 260.96 1196.15 260.4C1197.16 259.84 1198.31 259.56 1199.61 259.56C1200.85 259.56 1201.97 259.832 1202.94 260.376C1203.92 260.92 1204.68 261.688 1205.22 262.68C1205.77 263.656 1206.04 264.784 1206.04 266.064ZM1203.18 265.2C1203.17 264.192 1202.81 263.384 1202.1 262.776C1201.4 262.168 1200.53 261.864 1199.49 261.864C1198.54 261.864 1197.73 262.168 1197.06 262.776C1196.39 263.368 1195.99 264.176 1195.86 265.2H1203.18ZM1211.47 261.696C1211.87 261.024 1212.39 260.504 1213.05 260.136C1213.72 259.752 1214.51 259.56 1215.43 259.56V262.392H1214.73C1213.66 262.392 1212.84 262.664 1212.28 263.208C1211.74 263.752 1211.47 264.696 1211.47 266.04V273H1208.73V259.776H1211.47V261.696ZM1222.74 273.216C1221.7 273.216 1220.76 273.032 1219.93 272.664C1219.12 272.28 1218.47 271.768 1217.99 271.128C1217.51 270.472 1217.25 269.744 1217.22 268.944H1220.05C1220.1 269.504 1220.36 269.976 1220.84 270.36C1221.34 270.728 1221.96 270.912 1222.69 270.912C1223.46 270.912 1224.05 270.768 1224.47 270.48C1224.9 270.176 1225.12 269.792 1225.12 269.328C1225.12 268.832 1224.88 268.464 1224.4 268.224C1223.93 267.984 1223.19 267.72 1222.16 267.432C1221.17 267.16 1220.36 266.896 1219.74 266.64C1219.12 266.384 1218.57 265.992 1218.11 265.464C1217.66 264.936 1217.44 264.24 1217.44 263.376C1217.44 262.672 1217.64 262.032 1218.06 261.456C1218.48 260.864 1219.07 260.4 1219.84 260.064C1220.62 259.728 1221.52 259.56 1222.52 259.56C1224.03 259.56 1225.24 259.944 1226.15 260.712C1227.08 261.464 1227.57 262.496 1227.64 263.808H1224.9C1224.85 263.216 1224.61 262.744 1224.18 262.392C1223.75 262.04 1223.16 261.864 1222.43 261.864C1221.71 261.864 1221.16 262 1220.77 262.272C1220.39 262.544 1220.2 262.904 1220.2 263.352C1220.2 263.704 1220.32 264 1220.58 264.24C1220.84 264.48 1221.15 264.672 1221.52 264.816C1221.88 264.944 1222.43 265.112 1223.15 265.32C1224.11 265.576 1224.89 265.84 1225.5 266.112C1226.12 266.368 1226.66 266.752 1227.11 267.264C1227.56 267.776 1227.79 268.456 1227.8 269.304C1227.8 270.056 1227.6 270.728 1227.18 271.32C1226.76 271.912 1226.17 272.376 1225.4 272.712C1224.65 273.048 1223.76 273.216 1222.74 273.216ZM893.536 291.24V309H890.8V291.24H893.536ZM897.56 292.32H900.536L898.016 298.032H896.096L897.56 292.32ZM902.029 302.328C902.029 301 902.301 299.824 902.845 298.8C903.405 297.776 904.157 296.984 905.101 296.424C906.061 295.848 907.117 295.56 908.269 295.56C909.309 295.56 910.213 295.768 910.981 296.184C911.765 296.584 912.389 297.088 912.853 297.696V295.776H915.613V309H912.853V307.032C912.389 307.656 911.757 308.176 910.957 308.592C910.157 309.008 909.245 309.216 908.221 309.216C907.085 309.216 906.045 308.928 905.101 308.352C904.157 307.76 903.405 306.944 902.845 305.904C902.301 304.848 902.029 303.656 902.029 302.328ZM912.853 302.376C912.853 301.464 912.661 300.672 912.277 300C911.909 299.328 911.421 298.816 910.813 298.464C910.205 298.112 909.549 297.936 908.845 297.936C908.141 297.936 907.485 298.112 906.877 298.464C906.269 298.8 905.773 299.304 905.389 299.976C905.021 300.632 904.837 301.416 904.837 302.328C904.837 303.24 905.021 304.04 905.389 304.728C905.773 305.416 906.269 305.944 906.877 306.312C907.501 306.664 908.157 306.84 908.845 306.84C909.549 306.84 910.205 306.664 910.813 306.312C911.421 305.96 911.909 305.448 912.277 304.776C912.661 304.088 912.853 303.288 912.853 302.376ZM924.75 298.008H922.302V309H919.542V298.008H917.982V295.776H919.542V294.84C919.542 293.32 919.942 292.216 920.742 291.528C921.558 290.824 922.83 290.472 924.558 290.472V292.752C923.726 292.752 923.142 292.912 922.806 293.232C922.47 293.536 922.302 294.072 922.302 294.84V295.776H924.75V298.008ZM929.911 297.696C930.311 297.024 930.839 296.504 931.495 296.136C932.167 295.752 932.959 295.56 933.871 295.56V298.392H933.175C932.103 298.392 931.287 298.664 930.727 299.208C930.183 299.752 929.911 300.696 929.911 302.04V309H927.175V295.776H929.911V297.696ZM937.778 294.024C937.282 294.024 936.866 293.856 936.53 293.52C936.194 293.184 936.026 292.768 936.026 292.272C936.026 291.776 936.194 291.36 936.53 291.024C936.866 290.688 937.282 290.52 937.778 290.52C938.258 290.52 938.666 290.688 939.002 291.024C939.338 291.36 939.506 291.776 939.506 292.272C939.506 292.768 939.338 293.184 939.002 293.52C938.666 293.856 938.258 294.024 937.778 294.024ZM939.122 295.776V309H936.386V295.776H939.122ZM941.802 302.328C941.802 301 942.074 299.824 942.618 298.8C943.178 297.776 943.93 296.984 944.874 296.424C945.834 295.848 946.898 295.56 948.066 295.56C949.09 295.56 949.994 295.768 950.778 296.184C951.578 296.6 952.194 297.104 952.626 297.696V295.776H955.386V315.288H952.626V307.08C952.194 307.672 951.57 308.176 950.754 308.592C949.938 309.008 949.01 309.216 947.97 309.216C946.834 309.216 945.794 308.928 944.85 308.352C943.922 307.76 943.178 306.944 942.618 305.904C942.074 304.848 941.802 303.656 941.802 302.328ZM952.626 302.376C952.626 301.464 952.434 300.672 952.05 300C951.682 299.328 951.194 298.816 950.586 298.464C949.978 298.112 949.322 297.936 948.618 297.936C947.914 297.936 947.258 298.112 946.65 298.464C946.042 298.8 945.546 299.304 945.162 299.976C944.794 300.632 944.61 301.416 944.61 302.328C944.61 303.24 944.794 304.04 945.162 304.728C945.546 305.416 946.042 305.944 946.65 306.312C947.274 306.664 947.93 306.84 948.618 306.84C949.322 306.84 949.978 306.664 950.586 306.312C951.194 305.96 951.682 305.448 952.05 304.776C952.434 304.088 952.626 303.288 952.626 302.376ZM970.956 295.776V309H968.22V307.44C967.788 307.984 967.22 308.416 966.516 308.736C965.828 309.04 965.092 309.192 964.308 309.192C963.268 309.192 962.332 308.976 961.5 308.544C960.684 308.112 960.036 307.472 959.556 306.624C959.092 305.776 958.86 304.752 958.86 303.552V295.776H961.572V303.144C961.572 304.328 961.868 305.24 962.46 305.88C963.052 306.504 963.86 306.816 964.884 306.816C965.908 306.816 966.716 306.504 967.308 305.88C967.916 305.24 968.22 304.328 968.22 303.144V295.776H970.956ZM986.686 302.064C986.686 302.56 986.654 303.008 986.59 303.408H976.486C976.566 304.464 976.958 305.312 977.662 305.952C978.366 306.592 979.23 306.912 980.254 306.912C981.726 306.912 982.766 306.296 983.374 305.064H986.326C985.926 306.28 985.198 307.28 984.142 308.064C983.102 308.832 981.806 309.216 980.254 309.216C978.99 309.216 977.854 308.936 976.846 308.376C975.854 307.8 975.07 307 974.494 305.976C973.934 304.936 973.654 303.736 973.654 302.376C973.654 301.016 973.926 299.824 974.47 298.8C975.03 297.76 975.806 296.96 976.798 296.4C977.806 295.84 978.958 295.56 980.254 295.56C981.502 295.56 982.614 295.832 983.59 296.376C984.566 296.92 985.326 297.688 985.87 298.68C986.414 299.656 986.686 300.784 986.686 302.064ZM983.83 301.2C983.814 300.192 983.454 299.384 982.75 298.776C982.046 298.168 981.174 297.864 980.134 297.864C979.19 297.864 978.382 298.168 977.71 298.776C977.038 299.368 976.638 300.176 976.51 301.2H983.83Z" fill="white"/>
</svg>
